{
	"patcher" : 	{
		"fileversion" : 1,
		"rect" : [ 267.0, 174.0, 418.0, 394.0 ],
		"bglocked" : 0,
		"defrect" : [ 267.0, 174.0, 418.0, 394.0 ],
		"openrect" : [ 0.0, 0.0, 0.0, 0.0 ],
		"openinpresentation" : 0,
		"default_fontsize" : 12.0,
		"default_fontface" : 0,
		"default_fontname" : "Arial",
		"gridonopen" : 0,
		"gridsize" : [ 15.0, 15.0 ],
		"gridsnaponopen" : 0,
		"toolbarvisible" : 1,
		"boxanimatetime" : 200,
		"imprint" : 0,
		"metadata" : [  ],
		"boxes" : [ 			{
				"box" : 				{
					"maxclass" : "newobj",
					"text" : "loadbang",
					"numinlets" : 1,
					"patching_rect" : [ 260.0, 129.0, 60.0, 20.0 ],
					"fontname" : "Arial",
					"numoutlets" : 1,
					"id" : "obj-2",
					"outlettype" : [ "bang" ],
					"fontsize" : 12.0
				}

			}
, 			{
				"box" : 				{
					"maxclass" : "message",
					"text" : "separator",
					"numinlets" : 2,
					"patching_rect" : [ 260.0, 162.0, 61.0, 18.0 ],
					"fontname" : "Arial",
					"numoutlets" : 1,
					"id" : "obj-7",
					"outlettype" : [ "" ],
					"fontsize" : 12.0
				}

			}
, 			{
				"box" : 				{
					"maxclass" : "newobj",
					"text" : "fromsymbol",
					"numinlets" : 1,
					"patching_rect" : [ 60.0, 255.0, 73.0, 20.0 ],
					"fontname" : "Arial",
					"numoutlets" : 1,
					"id" : "obj-8",
					"outlettype" : [ "" ],
					"fontsize" : 12.0
				}

			}
, 			{
				"box" : 				{
					"maxclass" : "newobj",
					"text" : "tosymbol",
					"numinlets" : 1,
					"patching_rect" : [ 60.0, 223.0, 59.0, 20.0 ],
					"fontname" : "Arial",
					"numoutlets" : 1,
					"id" : "obj-1",
					"outlettype" : [ "" ],
					"fontsize" : 12.0
				}

			}
, 			{
				"box" : 				{
					"maxclass" : "comment",
					"text" : "Harry Smoak/Joseph Malloch 2009",
					"numinlets" : 1,
					"patching_rect" : [ 195.0, 300.0, 200.0, 20.0 ],
					"fontname" : "Arial",
					"numoutlets" : 0,
					"id" : "obj-28",
					"fontsize" : 12.0
				}

			}
, 			{
				"box" : 				{
					"maxclass" : "newobj",
					"text" : "vexpr $i1-48",
					"numinlets" : 1,
					"patching_rect" : [ 60.0, 192.0, 77.0, 20.0 ],
					"fontname" : "Arial",
					"numoutlets" : 1,
					"id" : "obj-26",
					"outlettype" : [ "" ],
					"fontsize" : 12.0
				}

			}
, 			{
				"box" : 				{
					"maxclass" : "newobj",
					"text" : "jit.spill",
					"numinlets" : 1,
					"patching_rect" : [ 60.0, 165.0, 43.0, 20.0 ],
					"fontname" : "Arial",
					"numoutlets" : 2,
					"id" : "obj-27",
					"outlettype" : [ "", "" ],
					"fontsize" : 12.0
				}

			}
, 			{
				"box" : 				{
					"maxclass" : "message",
					"text" : "line 0",
					"numinlets" : 2,
					"patching_rect" : [ 120.0, 165.0, 39.0, 18.0 ],
					"fontname" : "Arial",
					"numoutlets" : 1,
					"id" : "obj-22",
					"outlettype" : [ "" ],
					"fontsize" : 12.0
				}

			}
, 			{
				"box" : 				{
					"maxclass" : "newobj",
					"text" : "sel download",
					"numinlets" : 1,
					"patching_rect" : [ 120.0, 135.0, 78.0, 20.0 ],
					"fontname" : "Arial",
					"numoutlets" : 2,
					"id" : "obj-9",
					"outlettype" : [ "bang", "" ],
					"fontsize" : 11.595187
				}

			}
, 			{
				"box" : 				{
					"maxclass" : "outlet",
					"numinlets" : 1,
					"patching_rect" : [ 30.0, 285.0, 25.0, 25.0 ],
					"numoutlets" : 0,
					"id" : "obj-19",
					"comment" : ""
				}

			}
, 			{
				"box" : 				{
					"maxclass" : "newobj",
					"text" : "r host",
					"numinlets" : 0,
					"patching_rect" : [ 60.0, 30.0, 41.0, 20.0 ],
					"fontname" : "Arial",
					"numoutlets" : 1,
					"id" : "obj-18",
					"outlettype" : [ "" ],
					"fontsize" : 12.0
				}

			}
, 			{
				"box" : 				{
					"maxclass" : "comment",
					"text" : "host",
					"numinlets" : 1,
					"patching_rect" : [ 105.0, 30.0, 37.0, 20.0 ],
					"fontname" : "Arial",
					"numoutlets" : 0,
					"id" : "obj-17",
					"fontsize" : 12.0
				}

			}
, 			{
				"box" : 				{
					"maxclass" : "inlet",
					"numinlets" : 0,
					"patching_rect" : [ 30.0, 30.0, 25.0, 25.0 ],
					"numoutlets" : 1,
					"id" : "obj-14",
					"outlettype" : [ "" ],
					"comment" : ""
				}

			}
, 			{
				"box" : 				{
					"maxclass" : "newobj",
					"text" : "sprintf download http://%s/SenseWorldDataNetwork matrix",
					"numinlets" : 1,
					"patching_rect" : [ 30.0, 75.0, 322.0, 20.0 ],
					"fontname" : "Arial",
					"numoutlets" : 1,
					"id" : "obj-5",
					"outlettype" : [ "" ],
					"fontsize" : 12.0
				}

			}
, 			{
				"box" : 				{
					"maxclass" : "newobj",
					"text" : "print DataNetworkServer_port",
					"numinlets" : 1,
					"patching_rect" : [ 60.0, 330.0, 169.0, 20.0 ],
					"fontname" : "Arial",
					"numoutlets" : 0,
					"id" : "obj-3",
					"fontsize" : 12.0
				}

			}
, 			{
				"box" : 				{
					"maxclass" : "comment",
					"text" : "Queries the DataNetwork node server (via http port 80) for the current server port number",
					"linecount" : 3,
					"numinlets" : 1,
					"patching_rect" : [ 195.0, 240.0, 182.0, 48.0 ],
					"fontname" : "Arial",
					"numoutlets" : 0,
					"id" : "obj-36",
					"fontsize" : 12.0
				}

			}
, 			{
				"box" : 				{
					"maxclass" : "newobj",
					"text" : "jit.textfile",
					"numinlets" : 1,
					"patching_rect" : [ 30.0, 135.0, 79.0, 20.0 ],
					"fontname" : "Arial",
					"numoutlets" : 3,
					"id" : "obj-16",
					"outlettype" : [ "jit_matrix", "jit_matrix", "" ],
					"fontsize" : 11.595187
				}

			}
, 			{
				"box" : 				{
					"maxclass" : "newobj",
					"text" : "jit.uldl",
					"numinlets" : 1,
					"patching_rect" : [ 30.0, 105.0, 109.0, 20.0 ],
					"fontname" : "Arial",
					"numoutlets" : 2,
					"id" : "obj-46",
					"outlettype" : [ "jit_matrix", "" ],
					"fontsize" : 11.595187
				}

			}
 ],
		"lines" : [ 			{
				"patchline" : 				{
					"source" : [ "obj-2", 0 ],
					"destination" : [ "obj-7", 0 ],
					"hidden" : 0,
					"midpoints" : [  ]
				}

			}
, 			{
				"patchline" : 				{
					"source" : [ "obj-14", 0 ],
					"destination" : [ "obj-5", 0 ],
					"hidden" : 0,
					"midpoints" : [  ]
				}

			}
, 			{
				"patchline" : 				{
					"source" : [ "obj-16", 1 ],
					"destination" : [ "obj-27", 0 ],
					"hidden" : 0,
					"midpoints" : [  ]
				}

			}
, 			{
				"patchline" : 				{
					"source" : [ "obj-18", 0 ],
					"destination" : [ "obj-5", 0 ],
					"hidden" : 0,
					"midpoints" : [  ]
				}

			}
, 			{
				"patchline" : 				{
					"source" : [ "obj-22", 0 ],
					"destination" : [ "obj-16", 0 ],
					"hidden" : 0,
					"midpoints" : [ 129.5, 190.0, 205.5, 190.0, 205.5, 130.0, 39.5, 130.0 ]
				}

			}
, 			{
				"patchline" : 				{
					"source" : [ "obj-27", 0 ],
					"destination" : [ "obj-26", 0 ],
					"hidden" : 0,
					"midpoints" : [  ]
				}

			}
, 			{
				"patchline" : 				{
					"source" : [ "obj-46", 0 ],
					"destination" : [ "obj-16", 0 ],
					"hidden" : 0,
					"midpoints" : [  ]
				}

			}
, 			{
				"patchline" : 				{
					"source" : [ "obj-46", 1 ],
					"destination" : [ "obj-9", 0 ],
					"hidden" : 0,
					"midpoints" : [  ]
				}

			}
, 			{
				"patchline" : 				{
					"source" : [ "obj-5", 0 ],
					"destination" : [ "obj-46", 0 ],
					"hidden" : 0,
					"midpoints" : [  ]
				}

			}
, 			{
				"patchline" : 				{
					"source" : [ "obj-8", 0 ],
					"destination" : [ "obj-19", 0 ],
					"hidden" : 0,
					"midpoints" : [  ]
				}

			}
, 			{
				"patchline" : 				{
					"source" : [ "obj-8", 0 ],
					"destination" : [ "obj-3", 0 ],
					"hidden" : 0,
					"midpoints" : [  ]
				}

			}
, 			{
				"patchline" : 				{
					"source" : [ "obj-9", 0 ],
					"destination" : [ "obj-22", 0 ],
					"hidden" : 0,
					"midpoints" : [  ]
				}

			}
, 			{
				"patchline" : 				{
					"source" : [ "obj-7", 0 ],
					"destination" : [ "obj-1", 0 ],
					"hidden" : 0,
					"midpoints" : [ 269.5, 216.0, 69.5, 216.0 ]
				}

			}
, 			{
				"patchline" : 				{
					"source" : [ "obj-1", 0 ],
					"destination" : [ "obj-8", 0 ],
					"hidden" : 0,
					"midpoints" : [  ]
				}

			}
, 			{
				"patchline" : 				{
					"source" : [ "obj-26", 0 ],
					"destination" : [ "obj-1", 0 ],
					"hidden" : 0,
					"midpoints" : [  ]
				}

			}
 ]
	}

}
