{
	"patcher" : 	{
		"fileversion" : 1,
		"rect" : [ 313.0, 94.0, 1127.0, 717.0 ],
		"bglocked" : 0,
		"defrect" : [ 313.0, 94.0, 1127.0, 717.0 ],
		"openrect" : [ 0.0, 0.0, 0.0, 0.0 ],
		"openinpresentation" : 0,
		"default_fontsize" : 12.0,
		"default_fontface" : 0,
		"default_fontname" : "Arial",
		"gridonopen" : 0,
		"gridsize" : [ 15.0, 15.0 ],
		"gridsnaponopen" : 0,
		"toolbarvisible" : 1,
		"boxanimatetime" : 200,
		"imprint" : 0,
		"metadata" : [  ],
		"boxes" : [ 			{
				"box" : 				{
					"maxclass" : "newobj",
					"text" : "OSC-route /datanetwork",
					"numoutlets" : 2,
					"id" : "obj-15",
					"fontname" : "Arial",
					"outlettype" : [ "", "" ],
					"patching_rect" : [ 141.0, 241.0, 140.0, 20.0 ],
					"fontsize" : 12.0,
					"numinlets" : 1
				}

			}
, 			{
				"box" : 				{
					"maxclass" : "outlet",
					"numoutlets" : 0,
					"id" : "obj-13",
					"patching_rect" : [ 400.0, 468.0, 25.0, 25.0 ],
					"numinlets" : 1,
					"comment" : "List of all matching resources"
				}

			}
, 			{
				"box" : 				{
					"maxclass" : "comment",
					"text" : "To do:\n\nAdd support for an optional attribute for reading an subscription file (.txt)  DONE  Nov 12\n\nAdd handlers for /register /unregister Done Nov 12\n\nAdd support /add/expected and /get",
					"linecount" : 10,
					"numoutlets" : 0,
					"id" : "obj-5",
					"fontname" : "Arial",
					"patching_rect" : [ 576.0, 157.0, 230.0, 144.0 ],
					"fontsize" : 12.0,
					"numinlets" : 1
				}

			}
, 			{
				"box" : 				{
					"maxclass" : "button",
					"numoutlets" : 1,
					"id" : "obj-24",
					"outlettype" : [ "bang" ],
					"patching_rect" : [ 71.0, 8.0, 20.0, 20.0 ],
					"numinlets" : 1
				}

			}
, 			{
				"box" : 				{
					"maxclass" : "newobj",
					"text" : "route host port",
					"numoutlets" : 3,
					"id" : "obj-17",
					"fontname" : "Arial",
					"outlettype" : [ "", "", "" ],
					"patching_rect" : [ 17.0, 104.0, 88.0, 20.0 ],
					"fontsize" : 12.0,
					"numinlets" : 1
				}

			}
, 			{
				"box" : 				{
					"maxclass" : "newobj",
					"text" : "t b",
					"numoutlets" : 1,
					"id" : "obj-22",
					"fontname" : "Arial",
					"outlettype" : [ "bang" ],
					"patching_rect" : [ 408.0, 75.0, 24.0, 20.0 ],
					"fontsize" : 12.0,
					"numinlets" : 1
				}

			}
, 			{
				"box" : 				{
					"maxclass" : "inlet",
					"numoutlets" : 1,
					"id" : "obj-19",
					"outlettype" : [ "" ],
					"patching_rect" : [ 408.0, 11.0, 25.0, 25.0 ],
					"numinlets" : 0,
					"comment" : ""
				}

			}
, 			{
				"box" : 				{
					"maxclass" : "message",
					"text" : "edit",
					"numoutlets" : 1,
					"id" : "obj-14",
					"fontname" : "Arial",
					"outlettype" : [ "" ],
					"patching_rect" : [ 408.0, 120.0, 32.5, 18.0 ],
					"fontsize" : 12.0,
					"numinlets" : 2
				}

			}
, 			{
				"box" : 				{
					"maxclass" : "newobj",
					"text" : "p dataNetwork",
					"numoutlets" : 1,
					"id" : "obj-11",
					"fontname" : "Arial",
					"outlettype" : [ "" ],
					"patching_rect" : [ 437.0, 257.0, 88.0, 20.0 ],
					"fontsize" : 12.0,
					"numinlets" : 2,
					"patcher" : 					{
						"fileversion" : 1,
						"rect" : [ 100.0, 155.0, 1340.0, 629.0 ],
						"bglocked" : 0,
						"defrect" : [ 100.0, 155.0, 1340.0, 629.0 ],
						"openrect" : [ 0.0, 0.0, 0.0, 0.0 ],
						"openinpresentation" : 0,
						"default_fontsize" : 12.0,
						"default_fontface" : 0,
						"default_fontname" : "Arial",
						"gridonopen" : 0,
						"gridsize" : [ 15.0, 15.0 ],
						"gridsnaponopen" : 0,
						"toolbarvisible" : 1,
						"boxanimatetime" : 200,
						"imprint" : 0,
						"metadata" : [  ],
						"boxes" : [ 							{
								"box" : 								{
									"maxclass" : "comment",
									"text" : "port no.",
									"numoutlets" : 0,
									"id" : "obj-25",
									"fontname" : "Arial",
									"patching_rect" : [ 1001.0, 431.0, 150.0, 20.0 ],
									"fontsize" : 12.0,
									"numinlets" : 1
								}

							}
, 							{
								"box" : 								{
									"maxclass" : "message",
									"text" : "/unregister",
									"numoutlets" : 1,
									"id" : "obj-6",
									"fontname" : "Arial",
									"outlettype" : [ "" ],
									"patching_rect" : [ 915.0, 226.0, 67.0, 18.0 ],
									"fontsize" : 12.0,
									"numinlets" : 2
								}

							}
, 							{
								"box" : 								{
									"maxclass" : "message",
									"text" : "/register",
									"numoutlets" : 1,
									"id" : "obj-28",
									"fontname" : "Arial",
									"outlettype" : [ "" ],
									"patching_rect" : [ 824.0, 225.0, 54.0, 18.0 ],
									"fontsize" : 12.0,
									"numinlets" : 2
								}

							}
, 							{
								"box" : 								{
									"maxclass" : "newobj",
									"text" : "pack header i",
									"numoutlets" : 1,
									"id" : "obj-29",
									"fontname" : "Arial",
									"outlettype" : [ "" ],
									"patching_rect" : [ 915.0, 429.0, 83.0, 20.0 ],
									"fontsize" : 12.0,
									"numinlets" : 2
								}

							}
, 							{
								"box" : 								{
									"maxclass" : "newobj",
									"text" : "OSC-route /register /unregister",
									"numoutlets" : 3,
									"id" : "obj-7",
									"fontname" : "Arial",
									"outlettype" : [ "", "", "" ],
									"patching_rect" : [ 823.0, 173.0, 175.0, 20.0 ],
									"fontsize" : 12.0,
									"numinlets" : 1
								}

							}
, 							{
								"box" : 								{
									"maxclass" : "newobj",
									"text" : "t b",
									"numoutlets" : 1,
									"id" : "obj-5",
									"fontname" : "Arial",
									"outlettype" : [ "bang" ],
									"patching_rect" : [ 780.0, 69.0, 24.0, 20.0 ],
									"fontsize" : 12.0,
									"numinlets" : 1
								}

							}
, 							{
								"box" : 								{
									"maxclass" : "newobj",
									"text" : "route edit port file",
									"numoutlets" : 4,
									"id" : "obj-2",
									"fontname" : "Arial",
									"outlettype" : [ "", "", "", "" ],
									"patching_rect" : [ 720.0, 11.0, 103.0, 20.0 ],
									"fontsize" : 12.0,
									"numinlets" : 1
								}

							}
, 							{
								"box" : 								{
									"maxclass" : "comment",
									"text" : "Nov 1, 2008 \nHarry Smoak\nharrycs@harrysmoak.com",
									"linecount" : 3,
									"numoutlets" : 0,
									"id" : "obj-1",
									"fontname" : "Arial",
									"patching_rect" : [ 864.0, 76.0, 150.0, 48.0 ],
									"fontsize" : 12.0,
									"numinlets" : 1
								}

							}
, 							{
								"box" : 								{
									"maxclass" : "message",
									"text" : "/get",
									"numoutlets" : 1,
									"id" : "obj-33",
									"fontname" : "Arial",
									"outlettype" : [ "" ],
									"patching_rect" : [ 487.0, 259.0, 65.0, 18.0 ],
									"fontsize" : 12.0,
									"numinlets" : 2
								}

							}
, 							{
								"box" : 								{
									"maxclass" : "newobj",
									"text" : "prepend set",
									"numoutlets" : 1,
									"id" : "obj-32",
									"fontname" : "Arial",
									"outlettype" : [ "" ],
									"patching_rect" : [ 496.0, 219.0, 74.0, 20.0 ],
									"fontsize" : 12.0,
									"numinlets" : 1
								}

							}
, 							{
								"box" : 								{
									"maxclass" : "newobj",
									"text" : "unpack i i",
									"numoutlets" : 2,
									"id" : "obj-31",
									"fontname" : "Arial",
									"outlettype" : [ "int", "int" ],
									"patching_rect" : [ 627.0, 367.0, 61.0, 20.0 ],
									"fontsize" : 12.0,
									"numinlets" : 1
								}

							}
, 							{
								"box" : 								{
									"maxclass" : "gswitch2",
									"numoutlets" : 2,
									"id" : "obj-115",
									"outlettype" : [ "", "" ],
									"patching_rect" : [ 541.0, 376.0, 39.0, 32.0 ],
									"numinlets" : 2
								}

							}
, 							{
								"box" : 								{
									"maxclass" : "newobj",
									"text" : "pack header i i",
									"numoutlets" : 1,
									"id" : "obj-114",
									"fontname" : "Arial",
									"outlettype" : [ "" ],
									"patching_rect" : [ 641.0, 470.0, 89.0, 20.0 ],
									"fontsize" : 12.0,
									"numinlets" : 3
								}

							}
, 							{
								"box" : 								{
									"maxclass" : "newobj",
									"text" : "pack header i i i",
									"numoutlets" : 1,
									"id" : "obj-111",
									"fontname" : "Arial",
									"outlettype" : [ "" ],
									"patching_rect" : [ 523.0, 467.0, 95.0, 20.0 ],
									"fontsize" : 12.0,
									"numinlets" : 4
								}

							}
, 							{
								"box" : 								{
									"maxclass" : "message",
									"text" : "open",
									"numoutlets" : 1,
									"id" : "obj-30",
									"fontname" : "Arial",
									"outlettype" : [ "" ],
									"patching_rect" : [ 72.0, 33.0, 37.0, 18.0 ],
									"fontsize" : 12.0,
									"numinlets" : 2
								}

							}
, 							{
								"box" : 								{
									"maxclass" : "newobj",
									"text" : "t b l l",
									"numoutlets" : 3,
									"id" : "obj-27",
									"fontname" : "Arial",
									"outlettype" : [ "bang", "", "" ],
									"patching_rect" : [ 164.0, 88.0, 46.0, 20.0 ],
									"fontsize" : 12.0,
									"numinlets" : 1
								}

							}
, 							{
								"box" : 								{
									"maxclass" : "newobj",
									"text" : "unpack i i",
									"numoutlets" : 2,
									"id" : "obj-21",
									"fontname" : "Arial",
									"outlettype" : [ "int", "int" ],
									"patching_rect" : [ 199.0, 136.0, 61.0, 20.0 ],
									"fontsize" : 12.0,
									"numinlets" : 1
								}

							}
, 							{
								"box" : 								{
									"maxclass" : "newobj",
									"text" : "t b b",
									"numoutlets" : 2,
									"id" : "obj-103",
									"fontname" : "Arial",
									"outlettype" : [ "bang", "bang" ],
									"patching_rect" : [ 147.0, 280.0, 34.0, 20.0 ],
									"fontsize" : 12.0,
									"numinlets" : 1
								}

							}
, 							{
								"box" : 								{
									"maxclass" : "newobj",
									"text" : "t b b",
									"numoutlets" : 2,
									"id" : "obj-102",
									"fontname" : "Arial",
									"outlettype" : [ "bang", "bang" ],
									"patching_rect" : [ 187.0, 280.0, 34.0, 20.0 ],
									"fontsize" : 12.0,
									"numinlets" : 1
								}

							}
, 							{
								"box" : 								{
									"maxclass" : "newobj",
									"text" : "t b i",
									"numoutlets" : 2,
									"id" : "obj-101",
									"fontname" : "Arial",
									"outlettype" : [ "bang", "int" ],
									"patching_rect" : [ 147.0, 207.0, 32.5, 20.0 ],
									"fontsize" : 12.0,
									"numinlets" : 1
								}

							}
, 							{
								"box" : 								{
									"maxclass" : "gswitch2",
									"numoutlets" : 2,
									"id" : "obj-90",
									"outlettype" : [ "", "" ],
									"patching_rect" : [ 147.0, 239.0, 39.0, 32.0 ],
									"numinlets" : 2
								}

							}
, 							{
								"box" : 								{
									"maxclass" : "newobj",
									"text" : "== *",
									"numoutlets" : 1,
									"id" : "obj-88",
									"fontname" : "Arial",
									"outlettype" : [ "int" ],
									"patching_rect" : [ 147.0, 183.0, 33.0, 20.0 ],
									"fontsize" : 12.0,
									"numinlets" : 2
								}

							}
, 							{
								"box" : 								{
									"maxclass" : "newobj",
									"text" : "sprintf %s%s",
									"numoutlets" : 1,
									"id" : "obj-84",
									"fontname" : "Arial",
									"outlettype" : [ "" ],
									"patching_rect" : [ 397.0, 373.0, 80.0, 20.0 ],
									"fontsize" : 12.0,
									"numinlets" : 2
								}

							}
, 							{
								"box" : 								{
									"maxclass" : "message",
									"text" : "/node",
									"numoutlets" : 1,
									"id" : "obj-79",
									"fontname" : "Arial",
									"outlettype" : [ "" ],
									"patching_rect" : [ 197.0, 309.0, 41.0, 18.0 ],
									"fontsize" : 12.0,
									"numinlets" : 2
								}

							}
, 							{
								"box" : 								{
									"maxclass" : "message",
									"text" : "/slot",
									"numoutlets" : 1,
									"id" : "obj-78",
									"fontname" : "Arial",
									"outlettype" : [ "" ],
									"patching_rect" : [ 147.0, 305.0, 33.0, 18.0 ],
									"fontsize" : 12.0,
									"numinlets" : 2
								}

							}
, 							{
								"box" : 								{
									"maxclass" : "newobj",
									"text" : "p subscriptionManger",
									"numoutlets" : 1,
									"id" : "obj-13",
									"fontname" : "Arial",
									"outlettype" : [ "" ],
									"patching_rect" : [ 152.0, 63.0, 125.0, 20.0 ],
									"fontsize" : 12.0,
									"numinlets" : 2,
									"patcher" : 									{
										"fileversion" : 1,
										"rect" : [ 652.0, 181.0, 766.0, 528.0 ],
										"bglocked" : 0,
										"defrect" : [ 652.0, 181.0, 766.0, 528.0 ],
										"openrect" : [ 0.0, 0.0, 0.0, 0.0 ],
										"openinpresentation" : 0,
										"default_fontsize" : 12.0,
										"default_fontface" : 0,
										"default_fontname" : "Arial",
										"gridonopen" : 0,
										"gridsize" : [ 15.0, 15.0 ],
										"gridsnaponopen" : 0,
										"toolbarvisible" : 1,
										"boxanimatetime" : 200,
										"imprint" : 0,
										"metadata" : [  ],
										"boxes" : [ 											{
												"box" : 												{
													"maxclass" : "message",
													"text" : "read subscription.mtxt",
													"numoutlets" : 1,
													"id" : "obj-5",
													"fontname" : "Arial",
													"outlettype" : [ "" ],
													"patching_rect" : [ 524.0, 155.0, 189.0, 18.0 ],
													"fontsize" : 12.0,
													"numinlets" : 2
												}

											}
, 											{
												"box" : 												{
													"maxclass" : "newobj",
													"text" : "print subscription",
													"numoutlets" : 0,
													"id" : "obj-16",
													"fontname" : "Arial",
													"patching_rect" : [ 448.0, 410.0, 101.0, 20.0 ],
													"fontsize" : 12.0,
													"numinlets" : 1
												}

											}
, 											{
												"box" : 												{
													"maxclass" : "newobj",
													"text" : "t b l",
													"numoutlets" : 2,
													"id" : "obj-11",
													"fontname" : "Arial",
													"outlettype" : [ "bang", "" ],
													"patching_rect" : [ 524.0, 97.0, 32.5, 20.0 ],
													"fontsize" : 12.0,
													"numinlets" : 1
												}

											}
, 											{
												"box" : 												{
													"maxclass" : "inlet",
													"numoutlets" : 1,
													"id" : "obj-12",
													"outlettype" : [ "" ],
													"patching_rect" : [ 524.0, 49.0, 25.0, 25.0 ],
													"numinlets" : 0,
													"comment" : ""
												}

											}
, 											{
												"box" : 												{
													"maxclass" : "button",
													"numoutlets" : 1,
													"id" : "obj-9",
													"outlettype" : [ "bang" ],
													"patching_rect" : [ 510.0, 363.0, 20.0, 20.0 ],
													"numinlets" : 1
												}

											}
, 											{
												"box" : 												{
													"maxclass" : "button",
													"numoutlets" : 1,
													"id" : "obj-8",
													"outlettype" : [ "bang" ],
													"patching_rect" : [ 474.0, 362.0, 20.0, 20.0 ],
													"numinlets" : 1
												}

											}
, 											{
												"box" : 												{
													"maxclass" : "message",
													"text" : "read $1",
													"numoutlets" : 1,
													"id" : "obj-6",
													"fontname" : "Arial",
													"outlettype" : [ "" ],
													"patching_rect" : [ 524.0, 126.0, 51.0, 18.0 ],
													"fontsize" : 12.0,
													"numinlets" : 2
												}

											}
, 											{
												"box" : 												{
													"maxclass" : "outlet",
													"numoutlets" : 0,
													"id" : "obj-4",
													"patching_rect" : [ 389.0, 407.0, 25.0, 25.0 ],
													"numinlets" : 1,
													"comment" : ""
												}

											}
, 											{
												"box" : 												{
													"maxclass" : "inlet",
													"numoutlets" : 1,
													"id" : "obj-3",
													"outlettype" : [ "" ],
													"patching_rect" : [ 390.0, 49.0, 25.0, 25.0 ],
													"numinlets" : 0,
													"comment" : ""
												}

											}
, 											{
												"box" : 												{
													"maxclass" : "button",
													"numoutlets" : 1,
													"id" : "obj-10",
													"outlettype" : [ "bang" ],
													"patching_rect" : [ 275.0, 43.0, 20.0, 20.0 ],
													"numinlets" : 1
												}

											}
, 											{
												"box" : 												{
													"maxclass" : "newobj",
													"text" : "t b b b",
													"numoutlets" : 3,
													"id" : "obj-2",
													"fontname" : "Arial",
													"outlettype" : [ "bang", "bang", "bang" ],
													"patching_rect" : [ 275.0, 100.0, 46.0, 20.0 ],
													"fontsize" : 12.0,
													"numinlets" : 1
												}

											}
, 											{
												"box" : 												{
													"maxclass" : "message",
													"text" : "renumber",
													"numoutlets" : 1,
													"id" : "obj-18",
													"fontname" : "Arial",
													"outlettype" : [ "" ],
													"patching_rect" : [ 275.0, 175.0, 62.0, 18.0 ],
													"fontsize" : 12.0,
													"numinlets" : 2
												}

											}
, 											{
												"box" : 												{
													"maxclass" : "message",
													"text" : "sort -1 1",
													"numoutlets" : 1,
													"id" : "obj-14",
													"fontname" : "Arial",
													"outlettype" : [ "" ],
													"patching_rect" : [ 275.0, 197.0, 55.0, 18.0 ],
													"fontsize" : 12.0,
													"numinlets" : 2
												}

											}
, 											{
												"box" : 												{
													"maxclass" : "message",
													"text" : "dump",
													"numoutlets" : 1,
													"id" : "obj-7",
													"fontname" : "Arial",
													"outlettype" : [ "" ],
													"patching_rect" : [ 275.0, 151.0, 41.0, 18.0 ],
													"fontsize" : 12.0,
													"numinlets" : 2
												}

											}
, 											{
												"box" : 												{
													"maxclass" : "newobj",
													"text" : "coll subscription.mtxt",
													"numoutlets" : 4,
													"id" : "obj-1",
													"fontname" : "Arial",
													"outlettype" : [ "", "", "", "" ],
													"patching_rect" : [ 390.0, 325.0, 122.0, 20.0 ],
													"fontsize" : 12.0,
													"numinlets" : 1,
													"save" : [ "#N", "coll", "subscription.mtxt", ";" ],
													"saved_object_attributes" : 													{
														"embed" : 0
													}

												}

											}
 ],
										"lines" : [ 											{
												"patchline" : 												{
													"source" : [ "obj-1", 2 ],
													"destination" : [ "obj-2", 0 ],
													"hidden" : 0,
													"midpoints" : [  ]
												}

											}
, 											{
												"patchline" : 												{
													"source" : [ "obj-1", 0 ],
													"destination" : [ "obj-4", 0 ],
													"hidden" : 0,
													"midpoints" : [  ]
												}

											}
, 											{
												"patchline" : 												{
													"source" : [ "obj-14", 0 ],
													"destination" : [ "obj-1", 0 ],
													"hidden" : 0,
													"midpoints" : [ 284.5, 293.0, 399.5, 293.0 ]
												}

											}
, 											{
												"patchline" : 												{
													"source" : [ "obj-18", 0 ],
													"destination" : [ "obj-1", 0 ],
													"hidden" : 0,
													"midpoints" : [ 284.5, 273.0, 284.0, 273.0, 284.0, 294.0, 399.5, 294.0 ]
												}

											}
, 											{
												"patchline" : 												{
													"source" : [ "obj-7", 0 ],
													"destination" : [ "obj-1", 0 ],
													"hidden" : 0,
													"midpoints" : [ 284.5, 294.0, 399.5, 294.0 ]
												}

											}
, 											{
												"patchline" : 												{
													"source" : [ "obj-6", 0 ],
													"destination" : [ "obj-1", 0 ],
													"hidden" : 0,
													"midpoints" : [  ]
												}

											}
, 											{
												"patchline" : 												{
													"source" : [ "obj-1", 2 ],
													"destination" : [ "obj-8", 0 ],
													"hidden" : 0,
													"midpoints" : [  ]
												}

											}
, 											{
												"patchline" : 												{
													"source" : [ "obj-1", 3 ],
													"destination" : [ "obj-9", 0 ],
													"hidden" : 0,
													"midpoints" : [  ]
												}

											}
, 											{
												"patchline" : 												{
													"source" : [ "obj-3", 0 ],
													"destination" : [ "obj-1", 0 ],
													"hidden" : 0,
													"midpoints" : [  ]
												}

											}
, 											{
												"patchline" : 												{
													"source" : [ "obj-1", 0 ],
													"destination" : [ "obj-16", 0 ],
													"hidden" : 0,
													"midpoints" : [  ]
												}

											}
, 											{
												"patchline" : 												{
													"source" : [ "obj-6", 0 ],
													"destination" : [ "obj-5", 1 ],
													"hidden" : 0,
													"midpoints" : [  ]
												}

											}
, 											{
												"patchline" : 												{
													"source" : [ "obj-2", 2 ],
													"destination" : [ "obj-14", 0 ],
													"hidden" : 0,
													"midpoints" : [  ]
												}

											}
, 											{
												"patchline" : 												{
													"source" : [ "obj-2", 1 ],
													"destination" : [ "obj-18", 0 ],
													"hidden" : 0,
													"midpoints" : [  ]
												}

											}
, 											{
												"patchline" : 												{
													"source" : [ "obj-2", 0 ],
													"destination" : [ "obj-7", 0 ],
													"hidden" : 0,
													"midpoints" : [  ]
												}

											}
, 											{
												"patchline" : 												{
													"source" : [ "obj-10", 0 ],
													"destination" : [ "obj-2", 0 ],
													"hidden" : 0,
													"midpoints" : [  ]
												}

											}
, 											{
												"patchline" : 												{
													"source" : [ "obj-12", 0 ],
													"destination" : [ "obj-11", 0 ],
													"hidden" : 0,
													"midpoints" : [  ]
												}

											}
, 											{
												"patchline" : 												{
													"source" : [ "obj-11", 1 ],
													"destination" : [ "obj-6", 0 ],
													"hidden" : 0,
													"midpoints" : [  ]
												}

											}
, 											{
												"patchline" : 												{
													"source" : [ "obj-11", 0 ],
													"destination" : [ "obj-6", 0 ],
													"hidden" : 0,
													"midpoints" : [  ]
												}

											}
 ]
									}
,
									"saved_object_attributes" : 									{
										"default_fontsize" : 12.0,
										"fontname" : "Arial",
										"globalpatchername" : "",
										"fontface" : 0,
										"fontsize" : 12.0,
										"default_fontface" : 0,
										"default_fontname" : "Arial"
									}

								}

							}
, 							{
								"box" : 								{
									"maxclass" : "outlet",
									"numoutlets" : 0,
									"id" : "obj-12",
									"patching_rect" : [ 1094.0, 562.0, 25.0, 25.0 ],
									"numinlets" : 1,
									"comment" : ""
								}

							}
, 							{
								"box" : 								{
									"maxclass" : "newobj",
									"text" : "t s",
									"numoutlets" : 1,
									"id" : "obj-11",
									"fontname" : "Arial",
									"outlettype" : [ "" ],
									"patching_rect" : [ 1078.0, 257.0, 23.0, 20.0 ],
									"fontsize" : 12.0,
									"numinlets" : 1
								}

							}
, 							{
								"box" : 								{
									"maxclass" : "newobj",
									"text" : "t dump s",
									"numoutlets" : 2,
									"id" : "obj-9",
									"fontname" : "Arial",
									"outlettype" : [ "dump", "" ],
									"patching_rect" : [ 460.0, 186.0, 57.0, 20.0 ],
									"fontsize" : 12.0,
									"numinlets" : 1
								}

							}
, 							{
								"box" : 								{
									"maxclass" : "message",
									"text" : "/get",
									"numoutlets" : 1,
									"id" : "obj-26",
									"fontname" : "Arial",
									"outlettype" : [ "" ],
									"patching_rect" : [ 558.0, 131.0, 32.5, 18.0 ],
									"fontsize" : 12.0,
									"numinlets" : 2
								}

							}
, 							{
								"box" : 								{
									"maxclass" : "message",
									"text" : "/unsubscribe",
									"numoutlets" : 1,
									"id" : "obj-24",
									"fontname" : "Arial",
									"outlettype" : [ "" ],
									"patching_rect" : [ 466.0, 131.0, 80.0, 18.0 ],
									"fontsize" : 12.0,
									"numinlets" : 2
								}

							}
, 							{
								"box" : 								{
									"maxclass" : "message",
									"text" : "/subscribe",
									"numoutlets" : 1,
									"id" : "obj-22",
									"fontname" : "Arial",
									"outlettype" : [ "" ],
									"patching_rect" : [ 393.0, 131.0, 65.0, 18.0 ],
									"fontsize" : 12.0,
									"numinlets" : 2
								}

							}
, 							{
								"box" : 								{
									"maxclass" : "umenu",
									"numoutlets" : 3,
									"id" : "obj-81",
									"fontname" : "Arial",
									"outlettype" : [ "int", "", "" ],
									"patching_rect" : [ 393.0, 45.0, 100.0, 20.0 ],
									"fontsize" : 12.0,
									"items" : [ "/subscribe", ",", "/unsubscribe", ",", "/register", ",", "/unregister", ",", "/query/expected", ",", "/query/nodes", ",", "/query/slots", ",", "/get" ],
									"numinlets" : 1,
									"types" : [  ]
								}

							}
, 							{
								"box" : 								{
									"maxclass" : "newobj",
									"text" : "OSC-route /subscribe /unsubscribe /get",
									"numoutlets" : 4,
									"id" : "obj-19",
									"fontname" : "Arial",
									"outlettype" : [ "", "", "", "" ],
									"patching_rect" : [ 393.0, 88.0, 221.0, 20.0 ],
									"fontsize" : 12.0,
									"numinlets" : 1
								}

							}
, 							{
								"box" : 								{
									"maxclass" : "inlet",
									"numoutlets" : 1,
									"id" : "obj-4",
									"outlettype" : [ "" ],
									"patching_rect" : [ 353.0, 8.0, 25.0, 25.0 ],
									"numinlets" : 0,
									"comment" : ""
								}

							}
, 							{
								"box" : 								{
									"maxclass" : "inlet",
									"numoutlets" : 1,
									"id" : "obj-3",
									"outlettype" : [ "" ],
									"patching_rect" : [ 867.0, 8.0, 25.0, 25.0 ],
									"numinlets" : 0,
									"comment" : ""
								}

							}
 ],
						"lines" : [ 							{
								"patchline" : 								{
									"source" : [ "obj-29", 0 ],
									"destination" : [ "obj-12", 0 ],
									"hidden" : 0,
									"midpoints" : [  ]
								}

							}
, 							{
								"patchline" : 								{
									"source" : [ "obj-33", 0 ],
									"destination" : [ "obj-84", 0 ],
									"hidden" : 0,
									"midpoints" : [  ]
								}

							}
, 							{
								"patchline" : 								{
									"source" : [ "obj-78", 0 ],
									"destination" : [ "obj-84", 1 ],
									"hidden" : 0,
									"midpoints" : [ 156.5, 363.0, 467.5, 363.0 ]
								}

							}
, 							{
								"patchline" : 								{
									"source" : [ "obj-79", 0 ],
									"destination" : [ "obj-84", 1 ],
									"hidden" : 0,
									"midpoints" : [ 206.5, 362.0, 467.5, 362.0 ]
								}

							}
, 							{
								"patchline" : 								{
									"source" : [ "obj-84", 0 ],
									"destination" : [ "obj-115", 1 ],
									"hidden" : 0,
									"midpoints" : [  ]
								}

							}
, 							{
								"patchline" : 								{
									"source" : [ "obj-7", 2 ],
									"destination" : [ "obj-11", 0 ],
									"hidden" : 0,
									"midpoints" : [  ]
								}

							}
, 							{
								"patchline" : 								{
									"source" : [ "obj-7", 1 ],
									"destination" : [ "obj-6", 0 ],
									"hidden" : 0,
									"midpoints" : [ 910.5, 213.0, 924.5, 213.0 ]
								}

							}
, 							{
								"patchline" : 								{
									"source" : [ "obj-7", 0 ],
									"destination" : [ "obj-28", 0 ],
									"hidden" : 0,
									"midpoints" : [ 832.5, 210.0, 833.5, 210.0 ]
								}

							}
, 							{
								"patchline" : 								{
									"source" : [ "obj-19", 3 ],
									"destination" : [ "obj-7", 0 ],
									"hidden" : 0,
									"midpoints" : [  ]
								}

							}
, 							{
								"patchline" : 								{
									"source" : [ "obj-2", 1 ],
									"destination" : [ "obj-29", 1 ],
									"hidden" : 0,
									"midpoints" : [  ]
								}

							}
, 							{
								"patchline" : 								{
									"source" : [ "obj-81", 1 ],
									"destination" : [ "obj-19", 0 ],
									"hidden" : 0,
									"midpoints" : [  ]
								}

							}
, 							{
								"patchline" : 								{
									"source" : [ "obj-19", 0 ],
									"destination" : [ "obj-22", 0 ],
									"hidden" : 0,
									"midpoints" : [  ]
								}

							}
, 							{
								"patchline" : 								{
									"source" : [ "obj-19", 1 ],
									"destination" : [ "obj-24", 0 ],
									"hidden" : 0,
									"midpoints" : [  ]
								}

							}
, 							{
								"patchline" : 								{
									"source" : [ "obj-19", 2 ],
									"destination" : [ "obj-26", 0 ],
									"hidden" : 0,
									"midpoints" : [  ]
								}

							}
, 							{
								"patchline" : 								{
									"source" : [ "obj-4", 0 ],
									"destination" : [ "obj-19", 0 ],
									"hidden" : 0,
									"midpoints" : [  ]
								}

							}
, 							{
								"patchline" : 								{
									"source" : [ "obj-6", 0 ],
									"destination" : [ "obj-29", 0 ],
									"hidden" : 0,
									"midpoints" : [ 924.5, 414.0, 924.5, 414.0 ]
								}

							}
, 							{
								"patchline" : 								{
									"source" : [ "obj-28", 0 ],
									"destination" : [ "obj-29", 0 ],
									"hidden" : 0,
									"midpoints" : [ 833.5, 255.0, 924.5, 255.0 ]
								}

							}
, 							{
								"patchline" : 								{
									"source" : [ "obj-30", 0 ],
									"destination" : [ "obj-13", 0 ],
									"hidden" : 0,
									"midpoints" : [  ]
								}

							}
, 							{
								"patchline" : 								{
									"source" : [ "obj-2", 2 ],
									"destination" : [ "obj-13", 1 ],
									"hidden" : 0,
									"midpoints" : [  ]
								}

							}
, 							{
								"patchline" : 								{
									"source" : [ "obj-2", 1 ],
									"destination" : [ "obj-114", 1 ],
									"hidden" : 0,
									"midpoints" : [  ]
								}

							}
, 							{
								"patchline" : 								{
									"source" : [ "obj-2", 1 ],
									"destination" : [ "obj-111", 1 ],
									"hidden" : 0,
									"midpoints" : [  ]
								}

							}
, 							{
								"patchline" : 								{
									"source" : [ "obj-3", 0 ],
									"destination" : [ "obj-2", 0 ],
									"hidden" : 0,
									"midpoints" : [  ]
								}

							}
, 							{
								"patchline" : 								{
									"source" : [ "obj-2", 0 ],
									"destination" : [ "obj-5", 0 ],
									"hidden" : 0,
									"midpoints" : [  ]
								}

							}
, 							{
								"patchline" : 								{
									"source" : [ "obj-5", 0 ],
									"destination" : [ "obj-30", 0 ],
									"hidden" : 0,
									"midpoints" : [  ]
								}

							}
, 							{
								"patchline" : 								{
									"source" : [ "obj-111", 0 ],
									"destination" : [ "obj-12", 0 ],
									"hidden" : 0,
									"midpoints" : [  ]
								}

							}
, 							{
								"patchline" : 								{
									"source" : [ "obj-114", 0 ],
									"destination" : [ "obj-12", 0 ],
									"hidden" : 0,
									"midpoints" : [  ]
								}

							}
, 							{
								"patchline" : 								{
									"source" : [ "obj-27", 0 ],
									"destination" : [ "obj-33", 0 ],
									"hidden" : 0,
									"midpoints" : [  ]
								}

							}
, 							{
								"patchline" : 								{
									"source" : [ "obj-27", 1 ],
									"destination" : [ "obj-31", 0 ],
									"hidden" : 0,
									"midpoints" : [  ]
								}

							}
, 							{
								"patchline" : 								{
									"source" : [ "obj-27", 2 ],
									"destination" : [ "obj-21", 0 ],
									"hidden" : 0,
									"midpoints" : [  ]
								}

							}
, 							{
								"patchline" : 								{
									"source" : [ "obj-13", 0 ],
									"destination" : [ "obj-27", 0 ],
									"hidden" : 0,
									"midpoints" : [  ]
								}

							}
, 							{
								"patchline" : 								{
									"source" : [ "obj-11", 0 ],
									"destination" : [ "obj-12", 0 ],
									"hidden" : 0,
									"midpoints" : [  ]
								}

							}
, 							{
								"patchline" : 								{
									"source" : [ "obj-26", 0 ],
									"destination" : [ "obj-9", 0 ],
									"hidden" : 0,
									"midpoints" : [  ]
								}

							}
, 							{
								"patchline" : 								{
									"source" : [ "obj-24", 0 ],
									"destination" : [ "obj-9", 0 ],
									"hidden" : 0,
									"midpoints" : [  ]
								}

							}
, 							{
								"patchline" : 								{
									"source" : [ "obj-22", 0 ],
									"destination" : [ "obj-9", 0 ],
									"hidden" : 0,
									"midpoints" : [  ]
								}

							}
, 							{
								"patchline" : 								{
									"source" : [ "obj-88", 0 ],
									"destination" : [ "obj-101", 0 ],
									"hidden" : 0,
									"midpoints" : [  ]
								}

							}
, 							{
								"patchline" : 								{
									"source" : [ "obj-90", 1 ],
									"destination" : [ "obj-102", 0 ],
									"hidden" : 0,
									"midpoints" : [  ]
								}

							}
, 							{
								"patchline" : 								{
									"source" : [ "obj-90", 0 ],
									"destination" : [ "obj-103", 0 ],
									"hidden" : 0,
									"midpoints" : [  ]
								}

							}
, 							{
								"patchline" : 								{
									"source" : [ "obj-103", 1 ],
									"destination" : [ "obj-78", 0 ],
									"hidden" : 0,
									"midpoints" : [  ]
								}

							}
, 							{
								"patchline" : 								{
									"source" : [ "obj-102", 1 ],
									"destination" : [ "obj-79", 0 ],
									"hidden" : 0,
									"midpoints" : [  ]
								}

							}
, 							{
								"patchline" : 								{
									"source" : [ "obj-101", 0 ],
									"destination" : [ "obj-90", 1 ],
									"hidden" : 0,
									"midpoints" : [  ]
								}

							}
, 							{
								"patchline" : 								{
									"source" : [ "obj-101", 1 ],
									"destination" : [ "obj-90", 0 ],
									"hidden" : 0,
									"midpoints" : [  ]
								}

							}
, 							{
								"patchline" : 								{
									"source" : [ "obj-21", 1 ],
									"destination" : [ "obj-88", 0 ],
									"hidden" : 0,
									"midpoints" : [  ]
								}

							}
, 							{
								"patchline" : 								{
									"source" : [ "obj-115", 0 ],
									"destination" : [ "obj-111", 0 ],
									"hidden" : 0,
									"midpoints" : [ 550.5, 429.0, 532.5, 429.0 ]
								}

							}
, 							{
								"patchline" : 								{
									"source" : [ "obj-115", 1 ],
									"destination" : [ "obj-114", 0 ],
									"hidden" : 0,
									"midpoints" : [ 570.5, 429.0, 650.5, 429.0 ]
								}

							}
, 							{
								"patchline" : 								{
									"source" : [ "obj-101", 1 ],
									"destination" : [ "obj-115", 0 ],
									"hidden" : 0,
									"midpoints" : [  ]
								}

							}
, 							{
								"patchline" : 								{
									"source" : [ "obj-31", 0 ],
									"destination" : [ "obj-111", 2 ],
									"hidden" : 0,
									"midpoints" : [  ]
								}

							}
, 							{
								"patchline" : 								{
									"source" : [ "obj-31", 1 ],
									"destination" : [ "obj-111", 3 ],
									"hidden" : 0,
									"midpoints" : [  ]
								}

							}
, 							{
								"patchline" : 								{
									"source" : [ "obj-31", 0 ],
									"destination" : [ "obj-114", 2 ],
									"hidden" : 0,
									"midpoints" : [  ]
								}

							}
, 							{
								"patchline" : 								{
									"source" : [ "obj-32", 0 ],
									"destination" : [ "obj-33", 0 ],
									"hidden" : 0,
									"midpoints" : [  ]
								}

							}
, 							{
								"patchline" : 								{
									"source" : [ "obj-9", 1 ],
									"destination" : [ "obj-32", 0 ],
									"hidden" : 0,
									"midpoints" : [  ]
								}

							}
 ]
					}
,
					"saved_object_attributes" : 					{
						"default_fontsize" : 12.0,
						"fontname" : "Arial",
						"globalpatchername" : "",
						"fontface" : 0,
						"fontsize" : 12.0,
						"default_fontface" : 0,
						"default_fontname" : "Arial"
					}

				}

			}
, 			{
				"box" : 				{
					"maxclass" : "comment",
					"text" : "dataNetwork host and local listening port",
					"linecount" : 2,
					"numoutlets" : 0,
					"id" : "obj-34",
					"fontname" : "Arial",
					"patching_rect" : [ 255.0, 96.0, 150.0, 34.0 ],
					"fontsize" : 12.0,
					"numinlets" : 1
				}

			}
, 			{
				"box" : 				{
					"maxclass" : "newobj",
					"text" : "p announce",
					"numoutlets" : 1,
					"id" : "obj-33",
					"fontname" : "Arial",
					"outlettype" : [ "" ],
					"patching_rect" : [ 28.0, 543.0, 73.0, 20.0 ],
					"fontsize" : 12.0,
					"numinlets" : 1,
					"patcher" : 					{
						"fileversion" : 1,
						"rect" : [ 800.0, 206.0, 640.0, 480.0 ],
						"bglocked" : 0,
						"defrect" : [ 800.0, 206.0, 640.0, 480.0 ],
						"openrect" : [ 0.0, 0.0, 0.0, 0.0 ],
						"openinpresentation" : 0,
						"default_fontsize" : 12.0,
						"default_fontface" : 0,
						"default_fontname" : "Arial",
						"gridonopen" : 0,
						"gridsize" : [ 15.0, 15.0 ],
						"gridsnaponopen" : 0,
						"toolbarvisible" : 1,
						"boxanimatetime" : 200,
						"imprint" : 0,
						"metadata" : [  ],
						"boxes" : [ 							{
								"box" : 								{
									"maxclass" : "newobj",
									"text" : "sprintf port %i",
									"numoutlets" : 1,
									"id" : "obj-4",
									"fontname" : "Arial",
									"outlettype" : [ "" ],
									"patching_rect" : [ 152.0, 213.0, 84.0, 20.0 ],
									"fontsize" : 12.0,
									"numinlets" : 1
								}

							}
, 							{
								"box" : 								{
									"maxclass" : "comment",
									"text" : "Nov 1, 2008\nHarry Smoak\nharrycs@harrysmoak.com\n\nhandles the announce messages from the data network /datanetwork/announce and updates udpsend attributes",
									"linecount" : 10,
									"numoutlets" : 0,
									"id" : "obj-3",
									"fontname" : "Arial",
									"patching_rect" : [ 338.0, 39.0, 155.0, 144.0 ],
									"fontsize" : 12.0,
									"numinlets" : 1
								}

							}
, 							{
								"box" : 								{
									"maxclass" : "inlet",
									"numoutlets" : 1,
									"id" : "obj-2",
									"outlettype" : [ "" ],
									"patching_rect" : [ 95.0, 79.0, 25.0, 25.0 ],
									"numinlets" : 0,
									"comment" : ""
								}

							}
, 							{
								"box" : 								{
									"maxclass" : "outlet",
									"numoutlets" : 0,
									"id" : "obj-1",
									"patching_rect" : [ 136.0, 313.0, 25.0, 25.0 ],
									"numinlets" : 1,
									"comment" : ""
								}

							}
, 							{
								"box" : 								{
									"maxclass" : "comment",
									"text" : "default sc ports 57120 57129",
									"linecount" : 2,
									"numoutlets" : 0,
									"id" : "obj-31",
									"fontname" : "Arial",
									"patching_rect" : [ 275.0, 206.0, 150.0, 34.0 ],
									"fontsize" : 12.0,
									"numinlets" : 1
								}

							}
, 							{
								"box" : 								{
									"maxclass" : "newobj",
									"text" : "sprintf host %s",
									"numoutlets" : 1,
									"id" : "obj-29",
									"fontname" : "Arial",
									"outlettype" : [ "" ],
									"patching_rect" : [ 113.0, 255.0, 89.0, 20.0 ],
									"fontsize" : 12.0,
									"numinlets" : 1
								}

							}
, 							{
								"box" : 								{
									"maxclass" : "newobj",
									"text" : "unpack 127.0.0.1 57120",
									"numoutlets" : 2,
									"id" : "obj-15",
									"fontname" : "Arial",
									"outlettype" : [ "", "int" ],
									"patching_rect" : [ 98.0, 172.0, 139.0, 20.0 ],
									"fontsize" : 12.0,
									"numinlets" : 1
								}

							}
, 							{
								"box" : 								{
									"maxclass" : "newobj",
									"text" : "OSC-route /announce",
									"numoutlets" : 2,
									"id" : "obj-14",
									"fontname" : "Arial",
									"outlettype" : [ "", "" ],
									"patching_rect" : [ 98.0, 137.0, 127.0, 20.0 ],
									"fontsize" : 12.0,
									"numinlets" : 1
								}

							}
 ],
						"lines" : [ 							{
								"patchline" : 								{
									"source" : [ "obj-29", 0 ],
									"destination" : [ "obj-1", 0 ],
									"hidden" : 0,
									"midpoints" : [  ]
								}

							}
, 							{
								"patchline" : 								{
									"source" : [ "obj-15", 0 ],
									"destination" : [ "obj-29", 0 ],
									"hidden" : 0,
									"midpoints" : [  ]
								}

							}
, 							{
								"patchline" : 								{
									"source" : [ "obj-4", 0 ],
									"destination" : [ "obj-1", 0 ],
									"hidden" : 0,
									"midpoints" : [  ]
								}

							}
, 							{
								"patchline" : 								{
									"source" : [ "obj-15", 1 ],
									"destination" : [ "obj-4", 0 ],
									"hidden" : 0,
									"midpoints" : [  ]
								}

							}
, 							{
								"patchline" : 								{
									"source" : [ "obj-14", 0 ],
									"destination" : [ "obj-15", 0 ],
									"hidden" : 0,
									"midpoints" : [  ]
								}

							}
, 							{
								"patchline" : 								{
									"source" : [ "obj-2", 0 ],
									"destination" : [ "obj-14", 0 ],
									"hidden" : 0,
									"midpoints" : [  ]
								}

							}
 ]
					}
,
					"saved_object_attributes" : 					{
						"default_fontsize" : 12.0,
						"fontname" : "Arial",
						"globalpatchername" : "",
						"fontface" : 0,
						"fontsize" : 12.0,
						"default_fontface" : 0,
						"default_fontname" : "Arial"
					}

				}

			}
, 			{
				"box" : 				{
					"maxclass" : "comment",
					"text" : "2008 Harry Smoak <harrycs@harrysmoak.com>",
					"linecount" : 2,
					"numoutlets" : 0,
					"id" : "obj-32",
					"fontname" : "Arial",
					"patching_rect" : [ 576.0, 72.0, 203.0, 34.0 ],
					"fontsize" : 12.0,
					"numinlets" : 1
				}

			}
, 			{
				"box" : 				{
					"maxclass" : "comment",
					"text" : "default listening port 6000-6009",
					"linecount" : 2,
					"numoutlets" : 0,
					"id" : "obj-30",
					"fontname" : "Arial",
					"patching_rect" : [ 255.0, 137.0, 150.0, 34.0 ],
					"fontsize" : 12.0,
					"numinlets" : 1
				}

			}
, 			{
				"box" : 				{
					"maxclass" : "newobj",
					"text" : "t b l",
					"numoutlets" : 2,
					"id" : "obj-12",
					"fontname" : "Arial",
					"outlettype" : [ "bang", "" ],
					"patching_rect" : [ 437.0, 293.0, 32.5, 20.0 ],
					"fontsize" : 12.0,
					"numinlets" : 1
				}

			}
, 			{
				"box" : 				{
					"maxclass" : "comment",
					"text" : "respond to pings from Data Network",
					"numoutlets" : 0,
					"id" : "obj-27",
					"fontname" : "Arial",
					"patching_rect" : [ 293.0, 606.0, 203.0, 20.0 ],
					"fontsize" : 12.0,
					"numinlets" : 1
				}

			}
, 			{
				"box" : 				{
					"maxclass" : "newobj",
					"text" : "p pong",
					"numoutlets" : 1,
					"id" : "obj-18",
					"fontname" : "Arial",
					"outlettype" : [ "bang" ],
					"patching_rect" : [ 389.0, 558.0, 47.0, 20.0 ],
					"fontsize" : 12.0,
					"numinlets" : 2,
					"patcher" : 					{
						"fileversion" : 1,
						"rect" : [ 800.0, 324.0, 640.0, 480.0 ],
						"bglocked" : 0,
						"defrect" : [ 800.0, 324.0, 640.0, 480.0 ],
						"openrect" : [ 0.0, 0.0, 0.0, 0.0 ],
						"openinpresentation" : 0,
						"default_fontsize" : 12.0,
						"default_fontface" : 0,
						"default_fontname" : "Arial",
						"gridonopen" : 0,
						"gridsize" : [ 15.0, 15.0 ],
						"gridsnaponopen" : 0,
						"toolbarvisible" : 1,
						"boxanimatetime" : 200,
						"imprint" : 0,
						"metadata" : [  ],
						"boxes" : [ 							{
								"box" : 								{
									"maxclass" : "comment",
									"text" : "2008 Harry Smoak\n<harrycs@harrysmoak,.com>\n\nhandler to respond to ping messages  from Data Network",
									"linecount" : 5,
									"numoutlets" : 0,
									"id" : "obj-6",
									"fontname" : "Arial",
									"patching_rect" : [ 240.0, 27.0, 272.0, 75.0 ],
									"fontsize" : 12.0,
									"numinlets" : 1
								}

							}
, 							{
								"box" : 								{
									"maxclass" : "comment",
									"numoutlets" : 0,
									"id" : "obj-15",
									"fontname" : "Arial",
									"patching_rect" : [ 217.0, 67.0, 203.0, 20.0 ],
									"fontsize" : 12.0,
									"numinlets" : 1
								}

							}
, 							{
								"box" : 								{
									"maxclass" : "newobj",
									"text" : "t b l",
									"numoutlets" : 2,
									"id" : "obj-5",
									"fontname" : "Arial",
									"outlettype" : [ "bang", "" ],
									"patching_rect" : [ 75.0, 208.0, 32.5, 20.0 ],
									"fontsize" : 12.0,
									"numinlets" : 1
								}

							}
, 							{
								"box" : 								{
									"maxclass" : "newobj",
									"text" : "t b",
									"numoutlets" : 1,
									"id" : "obj-4",
									"fontname" : "Arial",
									"outlettype" : [ "bang" ],
									"patching_rect" : [ 61.0, 135.0, 24.0, 20.0 ],
									"fontsize" : 12.0,
									"numinlets" : 1
								}

							}
, 							{
								"box" : 								{
									"maxclass" : "inlet",
									"numoutlets" : 1,
									"id" : "obj-3",
									"outlettype" : [ "" ],
									"patching_rect" : [ 172.0, 58.0, 25.0, 25.0 ],
									"numinlets" : 0,
									"comment" : ""
								}

							}
, 							{
								"box" : 								{
									"maxclass" : "outlet",
									"numoutlets" : 0,
									"id" : "obj-2",
									"patching_rect" : [ 98.0, 250.0, 25.0, 25.0 ],
									"numinlets" : 1,
									"comment" : ""
								}

							}
, 							{
								"box" : 								{
									"maxclass" : "inlet",
									"numoutlets" : 1,
									"id" : "obj-1",
									"outlettype" : [ "" ],
									"patching_rect" : [ 64.0, 57.0, 25.0, 25.0 ],
									"numinlets" : 0,
									"comment" : ""
								}

							}
, 							{
								"box" : 								{
									"maxclass" : "newobj",
									"text" : "prepend set /pong",
									"numoutlets" : 1,
									"id" : "obj-13",
									"fontname" : "Arial",
									"outlettype" : [ "" ],
									"patching_rect" : [ 167.0, 115.0, 107.0, 20.0 ],
									"fontsize" : 12.0,
									"numinlets" : 1
								}

							}
, 							{
								"box" : 								{
									"maxclass" : "message",
									"text" : "/pong 6009",
									"numoutlets" : 1,
									"id" : "obj-12",
									"fontname" : "Arial",
									"outlettype" : [ "" ],
									"patching_rect" : [ 76.0, 177.0, 71.0, 18.0 ],
									"fontsize" : 12.0,
									"numinlets" : 2
								}

							}
 ],
						"lines" : [ 							{
								"patchline" : 								{
									"source" : [ "obj-4", 0 ],
									"destination" : [ "obj-12", 0 ],
									"hidden" : 0,
									"midpoints" : [  ]
								}

							}
, 							{
								"patchline" : 								{
									"source" : [ "obj-1", 0 ],
									"destination" : [ "obj-4", 0 ],
									"hidden" : 0,
									"midpoints" : [  ]
								}

							}
, 							{
								"patchline" : 								{
									"source" : [ "obj-3", 0 ],
									"destination" : [ "obj-13", 0 ],
									"hidden" : 0,
									"midpoints" : [  ]
								}

							}
, 							{
								"patchline" : 								{
									"source" : [ "obj-12", 0 ],
									"destination" : [ "obj-5", 0 ],
									"hidden" : 0,
									"midpoints" : [  ]
								}

							}
, 							{
								"patchline" : 								{
									"source" : [ "obj-5", 0 ],
									"destination" : [ "obj-2", 0 ],
									"hidden" : 0,
									"midpoints" : [  ]
								}

							}
, 							{
								"patchline" : 								{
									"source" : [ "obj-5", 1 ],
									"destination" : [ "obj-2", 0 ],
									"hidden" : 0,
									"midpoints" : [  ]
								}

							}
, 							{
								"patchline" : 								{
									"source" : [ "obj-13", 0 ],
									"destination" : [ "obj-12", 0 ],
									"hidden" : 0,
									"midpoints" : [  ]
								}

							}
 ]
					}
,
					"saved_object_attributes" : 					{
						"default_fontsize" : 12.0,
						"fontname" : "Arial",
						"globalpatchername" : "",
						"fontface" : 0,
						"fontsize" : 12.0,
						"default_fontface" : 0,
						"default_fontname" : "Arial"
					}

				}

			}
, 			{
				"box" : 				{
					"maxclass" : "outlet",
					"numoutlets" : 0,
					"id" : "obj-16",
					"patching_rect" : [ 437.0, 471.0, 25.0, 25.0 ],
					"numinlets" : 1,
					"comment" : "List of all matching resources"
				}

			}
, 			{
				"box" : 				{
					"maxclass" : "inlet",
					"numoutlets" : 1,
					"id" : "obj-8",
					"outlettype" : [ "" ],
					"patching_rect" : [ 14.0, 11.0, 25.0, 25.0 ],
					"numinlets" : 0,
					"comment" : ""
				}

			}
, 			{
				"box" : 				{
					"maxclass" : "outlet",
					"numoutlets" : 0,
					"id" : "obj-7",
					"patching_rect" : [ 352.0, 468.0, 25.0, 25.0 ],
					"numinlets" : 1,
					"comment" : "List of all matching resources"
				}

			}
, 			{
				"box" : 				{
					"maxclass" : "outlet",
					"numoutlets" : 0,
					"id" : "obj-2",
					"patching_rect" : [ 309.0, 468.0, 25.0, 25.0 ],
					"numinlets" : 1,
					"comment" : "List of all matching resources"
				}

			}
, 			{
				"box" : 				{
					"maxclass" : "comment",
					"text" : "host port ",
					"numoutlets" : 0,
					"id" : "obj-87",
					"fontname" : "Arial",
					"patching_rect" : [ 109.0, 23.0, 150.0, 20.0 ],
					"fontsize" : 12.0,
					"numinlets" : 1
				}

			}
, 			{
				"box" : 				{
					"maxclass" : "umenu",
					"numoutlets" : 3,
					"id" : "obj-81",
					"fontname" : "Arial",
					"outlettype" : [ "int", "", "" ],
					"patching_rect" : [ 312.0, 217.0, 100.0, 20.0 ],
					"fontsize" : 12.0,
					"items" : [ "/subscribe", ",", "/unsubscribe", ",", "/register", ",", "/unregister", ",", "/query/expected", ",", "/query/nodes", ",", "/query/slots", ",", "/get" ],
					"numinlets" : 1,
					"types" : [  ]
				}

			}
, 			{
				"box" : 				{
					"maxclass" : "inlet",
					"numoutlets" : 1,
					"id" : "obj-23",
					"outlettype" : [ "" ],
					"patching_rect" : [ 492.0, 11.0, 25.0, 25.0 ],
					"numinlets" : 0,
					"comment" : ""
				}

			}
, 			{
				"box" : 				{
					"maxclass" : "newobj",
					"text" : "prepend port",
					"numoutlets" : 1,
					"id" : "obj-4",
					"fontname" : "Arial",
					"outlettype" : [ "" ],
					"patching_rect" : [ 141.0, 180.0, 79.0, 20.0 ],
					"fontsize" : 12.0,
					"numinlets" : 1
				}

			}
, 			{
				"box" : 				{
					"maxclass" : "newobj",
					"text" : "OSC-route /data /error /info /ping",
					"numoutlets" : 5,
					"id" : "obj-21",
					"fontname" : "Arial",
					"outlettype" : [ "", "", "", "", "" ],
					"patching_rect" : [ 264.0, 422.0, 185.0, 20.0 ],
					"fontsize" : 12.0,
					"numinlets" : 1
				}

			}
, 			{
				"box" : 				{
					"maxclass" : "newobj",
					"text" : "udpreceive 57120",
					"numoutlets" : 1,
					"id" : "obj-20",
					"fontname" : "Arial",
					"outlettype" : [ "" ],
					"patching_rect" : [ 141.0, 208.0, 106.0, 20.0 ],
					"fontsize" : 12.0,
					"numinlets" : 1
				}

			}
, 			{
				"box" : 				{
					"maxclass" : "newobj",
					"text" : "prepend host",
					"numoutlets" : 1,
					"id" : "obj-6",
					"fontname" : "Arial",
					"outlettype" : [ "" ],
					"patching_rect" : [ 96.0, 642.0, 81.0, 20.0 ],
					"fontsize" : 12.0,
					"numinlets" : 1
				}

			}
, 			{
				"box" : 				{
					"maxclass" : "newobj",
					"text" : "udpsend 127.0.0.1 57121",
					"numoutlets" : 0,
					"id" : "obj-3",
					"fontname" : "Arial",
					"patching_rect" : [ 57.0, 676.0, 147.0, 20.0 ],
					"fontsize" : 12.0,
					"numinlets" : 1
				}

			}
, 			{
				"box" : 				{
					"maxclass" : "newobj",
					"text" : "OpenSoundControl",
					"numoutlets" : 3,
					"id" : "obj-1",
					"fontname" : "Arial",
					"outlettype" : [ "", "", "OSCTimeTag" ],
					"patching_rect" : [ 52.0, 604.0, 113.0, 20.0 ],
					"fontsize" : 12.0,
					"numinlets" : 1
				}

			}
, 			{
				"box" : 				{
					"maxclass" : "outlet",
					"numoutlets" : 0,
					"id" : "obj-10",
					"patching_rect" : [ 264.0, 468.0, 25.0, 25.0 ],
					"numinlets" : 1,
					"comment" : "List of all matching resources"
				}

			}
, 			{
				"box" : 				{
					"maxclass" : "newobj",
					"text" : "patcherargs @host 127.0.0.1 @port 6009 @file subscription.mtxt",
					"numoutlets" : 2,
					"id" : "obj-9",
					"fontname" : "Arial",
					"outlettype" : [ "", "" ],
					"patching_rect" : [ 14.0, 50.0, 356.0, 20.0 ],
					"fontsize" : 12.0,
					"numinlets" : 1
				}

			}
 ],
		"lines" : [ 			{
				"patchline" : 				{
					"source" : [ "obj-17", 2 ],
					"destination" : [ "obj-11", 1 ],
					"hidden" : 0,
					"midpoints" : [  ]
				}

			}
, 			{
				"patchline" : 				{
					"source" : [ "obj-9", 1 ],
					"destination" : [ "obj-17", 0 ],
					"hidden" : 0,
					"midpoints" : [ 360.5, 84.0, 26.5, 84.0 ]
				}

			}
, 			{
				"patchline" : 				{
					"source" : [ "obj-17", 1 ],
					"destination" : [ "obj-4", 0 ],
					"hidden" : 0,
					"midpoints" : [ 61.0, 165.0, 150.5, 165.0 ]
				}

			}
, 			{
				"patchline" : 				{
					"source" : [ "obj-17", 0 ],
					"destination" : [ "obj-6", 0 ],
					"hidden" : 0,
					"midpoints" : [ 26.5, 591.0, 39.0, 591.0, 39.0, 639.0, 105.5, 639.0 ]
				}

			}
, 			{
				"patchline" : 				{
					"source" : [ "obj-17", 1 ],
					"destination" : [ "obj-18", 1 ],
					"hidden" : 0,
					"midpoints" : [ 61.0, 527.0, 426.5, 527.0 ]
				}

			}
, 			{
				"patchline" : 				{
					"source" : [ "obj-8", 0 ],
					"destination" : [ "obj-9", 0 ],
					"hidden" : 0,
					"midpoints" : [  ]
				}

			}
, 			{
				"patchline" : 				{
					"source" : [ "obj-24", 0 ],
					"destination" : [ "obj-9", 0 ],
					"hidden" : 0,
					"midpoints" : [  ]
				}

			}
, 			{
				"patchline" : 				{
					"source" : [ "obj-22", 0 ],
					"destination" : [ "obj-14", 0 ],
					"hidden" : 0,
					"midpoints" : [  ]
				}

			}
, 			{
				"patchline" : 				{
					"source" : [ "obj-19", 0 ],
					"destination" : [ "obj-22", 0 ],
					"hidden" : 0,
					"midpoints" : [  ]
				}

			}
, 			{
				"patchline" : 				{
					"source" : [ "obj-11", 0 ],
					"destination" : [ "obj-12", 0 ],
					"hidden" : 0,
					"midpoints" : [  ]
				}

			}
, 			{
				"patchline" : 				{
					"source" : [ "obj-4", 0 ],
					"destination" : [ "obj-11", 1 ],
					"hidden" : 0,
					"midpoints" : [ 150.5, 201.0, 515.5, 201.0 ]
				}

			}
, 			{
				"patchline" : 				{
					"source" : [ "obj-14", 0 ],
					"destination" : [ "obj-11", 1 ],
					"hidden" : 0,
					"midpoints" : [ 417.5, 150.0, 515.5, 150.0 ]
				}

			}
, 			{
				"patchline" : 				{
					"source" : [ "obj-23", 0 ],
					"destination" : [ "obj-11", 0 ],
					"hidden" : 0,
					"midpoints" : [ 501.5, 243.0, 446.5, 243.0 ]
				}

			}
, 			{
				"patchline" : 				{
					"source" : [ "obj-81", 1 ],
					"destination" : [ "obj-11", 0 ],
					"hidden" : 0,
					"midpoints" : [  ]
				}

			}
, 			{
				"patchline" : 				{
					"source" : [ "obj-12", 1 ],
					"destination" : [ "obj-1", 0 ],
					"hidden" : 0,
					"midpoints" : [ 460.0, 537.0, 111.0, 537.0, 111.0, 591.0, 61.5, 591.0 ]
				}

			}
, 			{
				"patchline" : 				{
					"source" : [ "obj-12", 0 ],
					"destination" : [ "obj-1", 0 ],
					"hidden" : 0,
					"midpoints" : [ 446.5, 408.0, 111.0, 408.0, 111.0, 591.0, 61.5, 591.0 ]
				}

			}
, 			{
				"patchline" : 				{
					"source" : [ "obj-18", 0 ],
					"destination" : [ "obj-1", 0 ],
					"hidden" : 0,
					"midpoints" : [ 398.5, 591.0, 61.5, 591.0 ]
				}

			}
, 			{
				"patchline" : 				{
					"source" : [ "obj-4", 0 ],
					"destination" : [ "obj-20", 0 ],
					"hidden" : 0,
					"midpoints" : [  ]
				}

			}
, 			{
				"patchline" : 				{
					"source" : [ "obj-21", 0 ],
					"destination" : [ "obj-10", 0 ],
					"hidden" : 0,
					"midpoints" : [  ]
				}

			}
, 			{
				"patchline" : 				{
					"source" : [ "obj-21", 4 ],
					"destination" : [ "obj-16", 0 ],
					"hidden" : 0,
					"midpoints" : [  ]
				}

			}
, 			{
				"patchline" : 				{
					"source" : [ "obj-21", 3 ],
					"destination" : [ "obj-13", 0 ],
					"hidden" : 0,
					"midpoints" : [  ]
				}

			}
, 			{
				"patchline" : 				{
					"source" : [ "obj-21", 3 ],
					"destination" : [ "obj-18", 0 ],
					"hidden" : 0,
					"midpoints" : [  ]
				}

			}
, 			{
				"patchline" : 				{
					"source" : [ "obj-21", 2 ],
					"destination" : [ "obj-7", 0 ],
					"hidden" : 0,
					"midpoints" : [  ]
				}

			}
, 			{
				"patchline" : 				{
					"source" : [ "obj-21", 1 ],
					"destination" : [ "obj-2", 0 ],
					"hidden" : 0,
					"midpoints" : [  ]
				}

			}
, 			{
				"patchline" : 				{
					"source" : [ "obj-20", 0 ],
					"destination" : [ "obj-15", 0 ],
					"hidden" : 0,
					"midpoints" : [  ]
				}

			}
, 			{
				"patchline" : 				{
					"source" : [ "obj-15", 1 ],
					"destination" : [ "obj-21", 0 ],
					"hidden" : 0,
					"midpoints" : [ 271.5, 417.0, 273.5, 417.0 ]
				}

			}
, 			{
				"patchline" : 				{
					"source" : [ "obj-15", 0 ],
					"destination" : [ "obj-33", 0 ],
					"hidden" : 0,
					"midpoints" : [ 150.5, 528.0, 37.5, 528.0 ]
				}

			}
, 			{
				"patchline" : 				{
					"source" : [ "obj-1", 0 ],
					"destination" : [ "obj-3", 0 ],
					"hidden" : 0,
					"midpoints" : [ 61.5, 663.0, 66.5, 663.0 ]
				}

			}
, 			{
				"patchline" : 				{
					"source" : [ "obj-6", 0 ],
					"destination" : [ "obj-3", 0 ],
					"hidden" : 0,
					"midpoints" : [  ]
				}

			}
, 			{
				"patchline" : 				{
					"source" : [ "obj-33", 0 ],
					"destination" : [ "obj-3", 0 ],
					"hidden" : 0,
					"midpoints" : [ 37.5, 663.0, 66.5, 663.0 ]
				}

			}
 ]
	}

}
