#N canvas 437 49 826 527 12;
#X text 115 81 This abstraction learns the host IP address using the
"pv dn-host" object - this MUST be included in the parent patcher.
;
#X obj 495 54 pv dn-clientName PdClient;
#X obj 32 58 s dn.node;
#X obj 32 35 bng 15 250 50 0 empty empty empty 17 7 0 10 -262144 -1
-1;
#X obj 129 30 cnv 10 320 40 empty empty Important! 5 10 0 14 -261234
-86277 0;
#X text 133 50 Re-init after changing client name;
#X text 116 144 Similarly \, the client name of the patch is shared
between all objects and must also be included.;
#X text 50 29 <---------;
#X obj 486 419 r senseworld.local;
#X obj 486 486 bng 15 250 50 0 empty empty empty 17 7 0 10 -262144
-1 -1;
#X obj 589 489 print SENSEWORLD;
#X obj 486 453 route /ping;
#X text 485 386 Print messages from the server;
#X obj 495 27 pv dn-host 127.0.0.1;
#X text 29 201 Send data as a list of floats. Each element corresponds
to a slot.;
#X floatatom 22 258 5 0 0 0 - - -;
#X floatatom 69 256 5 0 0 0 - - -;
#X floatatom 110 257 5 0 0 0 - - -;
#X obj 157 313 bng 15 250 50 0 empty empty empty 17 7 0 10 -262144
-1 -1;
#X obj 54 310 pack 0 0 0;
#X text 201 345 Arguments: node id \, number of slots;
#X text 199 301 Bang in right inlet re-initializes \, as does bang
sent to "dn.node" (see above);
#X obj 43 285 bng 15 250 50 0 empty empty empty 17 7 0 10 -262144 -1
-1;
#X obj 78 287 bng 15 250 50 0 empty empty empty 17 7 0 10 -262144 -1
-1;
#X obj 8 348 dn.makenode 3000 3;
#X connect 3 0 2 0;
#X connect 8 0 11 0;
#X connect 8 0 10 0;
#X connect 11 0 9 0;
#X connect 15 0 19 0;
#X connect 16 0 19 1;
#X connect 16 0 22 0;
#X connect 17 0 19 2;
#X connect 17 0 23 0;
#X connect 18 0 24 1;
#X connect 19 0 24 0;
#X connect 22 0 19 0;
#X connect 23 0 19 0;
