#N canvas 408 24 1431 579 12;
#X text -70 -843 This abstraction learns the host IP address using
the "pv dn-host" object - this MUST be included in the parent patcher.
;
#X obj 310 -870 pv dn-clientName PdClient;
#X obj -153 -866 s dn.node;
#X obj -153 -889 bng 15 250 50 0 empty empty empty 17 7 0 10 -262144
-1 -1;
#X obj -56 -894 cnv 10 320 40 empty empty Important! 5 10 0 14 -261234
-86277 0;
#X text -52 -874 Re-init after changing client name;
#X text -69 -780 Similarly \, the client name of the patch is shared
between all objects and must also be included.;
#X text -135 -895 <---------;
#X obj 35 -474 r senseworld.local;
#X obj 35 -407 bng 15 250 50 0 empty empty empty 17 7 0 10 -262144
-1 -1;
#X obj 138 -404 print SENSEWORLD;
#X obj 35 -440 route /ping;
#X text 34 -507 Print messages from the server;
#X obj 310 -897 pv dn-host 127.0.0.1;
#X text -156 -723 Send data as a list of floats. Each element corresponds
to a slot.;
#X floatatom -159 -667 5 0 0 0 - - -;
#X floatatom -116 -668 5 0 0 0 - - -;
#X floatatom -75 -667 5 0 0 0 - - -;
#X obj -28 -611 bng 15 250 50 0 empty empty empty 17 7 0 10 -262144
-1 -1;
#X obj -131 -614 pack 0 0 0;
#X text 16 -579 Arguments: node id \, number of slots;
#X text 14 -623 Bang in right inlet re-initializes \, as does bang
sent to "dn.node" (see above);
#X obj -142 -639 bng 15 250 50 0 empty empty empty 17 7 0 10 -262144
-1 -1;
#X obj -107 -637 bng 15 250 50 0 empty empty empty 17 7 0 10 -262144
-1 -1;
#X obj -177 -576 dn.makenode 3000 3;
#X obj 639 -805 prepend set;
#X msg 657 -757 56 67 102;
#X obj 579 -857 bng 15 250 50 0 empty empty empty 17 7 0 10 -262144
-1 -1;
#X text 555 -893 this node subscribes to the node you just made!;
#X text 663 -782 data here matches the data sent to makenode;
#X text 724 -835 Arguments: node id;
#X obj 579 -834 dn.node 3000;
#X obj 571 -672 vsl 15 128 0 255 0 0 empty empty empty 0 -9 0 10 -262144
-1 -1 2789 1;
#X obj 780 -675 vsl 15 128 0 255 0 0 empty empty empty 0 -9 0 10 -262144
-1 -1 3337 1;
#X obj 980 -686 vsl 15 128 0 255 0 0 empty empty empty 0 -9 0 10 -262144
-1 -1 5080 1;
#X obj 572 -702 unpack f f f;
#X obj 570 -503 timeroll;
#X obj 778 -503 timeroll;
#X obj 983 -504 timeroll;
#X obj 570 -533 autoscale 0 1;
#X obj 777 -534 autoscale 0 1;
#X obj 980 -543 autoscale 0 1;
#X connect 3 0 2 0;
#X connect 8 0 11 0;
#X connect 8 0 10 0;
#X connect 11 0 9 0;
#X connect 15 0 19 0;
#X connect 16 0 19 1;
#X connect 16 0 22 0;
#X connect 17 0 19 2;
#X connect 17 0 23 0;
#X connect 18 0 24 1;
#X connect 19 0 24 0;
#X connect 22 0 19 0;
#X connect 23 0 19 0;
#X connect 25 0 26 0;
#X connect 27 0 31 0;
#X connect 31 0 25 0;
#X connect 31 0 35 0;
#X connect 32 0 39 0;
#X connect 33 0 40 0;
#X connect 34 0 41 0;
#X connect 35 0 32 0;
#X connect 35 1 33 0;
#X connect 35 2 34 0;
#X connect 39 0 36 0;
#X connect 40 0 37 0;
#X connect 41 0 38 0;
