#N canvas 704 235 763 578 12;
#X text -70 -843 This abstraction learns the host IP address using
the "pv dn-host" object - this MUST be included in the parent patcher.
;
#X obj 310 -870 pv dn-clientName PdClient;
#X obj -153 -866 s dn.node;
#X obj -153 -889 bng 15 250 50 0 empty empty empty 17 7 0 10 -262144
-1 -1;
#X obj -56 -894 cnv 10 320 40 empty empty Important! 5 10 0 14 -261234
-86277 0;
#X text -52 -874 Re-init after changing client name;
#X text -69 -780 Similarly \, the client name of the patch is shared
between all objects and must also be included.;
#X text -135 -895 <---------;
#X obj 245 -446 r senseworld.local;
#X obj 245 -379 bng 15 250 50 0 empty empty empty 17 7 0 10 -262144
-1 -1;
#X obj 348 -376 print SENSEWORLD;
#X obj 245 -412 route /ping;
#X text 244 -479 Print messages from the server;
#X obj 310 -897 pv dn-host 127.0.0.1;
#X text -156 -723 Send data as a list of floats. Each element corresponds
to a slot.;
#X obj -20 -576 bng 15 250 50 0 empty empty empty 17 7 0 10 -262144
-1 -1;
#X text 1 -608 Bang in right inlet re-initializes \, as does bang sent
to "dn.node" (see above);
#X text -173 -524 Arguments: node id \, number of slots \, minibee
id;
#X obj -154 -546 dn.mapnode 3001 1 1;
#X obj -154 -577 pack 0;
#X floatatom -154 -615 5 0 0 0 - - -;
#X obj -151 -660 hsl 128 15 0 127 0 0 empty empty empty -2 -8 0 10
-262144 -1 -1 11800 1;
#X connect 3 0 2 0;
#X connect 8 0 11 0;
#X connect 8 0 10 0;
#X connect 11 0 9 0;
#X connect 15 0 18 1;
#X connect 19 0 18 0;
#X connect 20 0 19 0;
#X connect 21 0 20 0;
