#N canvas 520 77 1393 681 12;
#X text -70 -843 This abstraction learns the host IP address using
the "pv dn-host" object - this MUST be included in the parent patcher.
;
#X obj 310 -870 pv dn-clientName PdClient;
#X obj -153 -866 s dn.node;
#X obj -153 -889 bng 15 250 50 0 empty empty empty 17 7 0 10 -262144
-1 -1;
#X obj -56 -894 cnv 10 320 40 empty empty Important! 5 10 0 14 -261234
-86277 0;
#X text -52 -874 Re-init after changing client name;
#X text -69 -780 Similarly \, the client name of the patch is shared
between all objects and must also be included.;
#X text -135 -895 <---------;
#X obj -84 -604 r senseworld.local;
#X obj -84 -537 bng 15 250 50 0 empty empty empty 17 7 0 10 -262144
-1 -1;
#X obj 19 -534 print SENSEWORLD;
#X obj -84 -570 route /ping;
#X text -85 -637 Print messages from the server;
#X obj 310 -897 pv dn-host 127.0.0.1;
#X text -156 -723 Send data as a list of floats. Each element corresponds
to a slot.;
#X obj 639 -805 prepend set;
#X msg 657 -757 0.705882 0.493713 0.502014 0.531925;
#X obj 579 -857 bng 15 250 50 0 empty empty empty 17 7 0 10 -262144
-1 -1;
#X text 555 -893 this node subscribes to the node you just made!;
#X text 663 -782 data here matches the data sent to makenode;
#X text 724 -835 Arguments: node id;
#X obj 343 -642 vsl 15 128 0 1 0 0 empty empty empty 0 -9 0 10 -262144
-1 -1 8965 1;
#X obj 552 -645 vsl 15 128 0 1 0 0 empty empty empty 0 -9 0 10 -262144
-1 -1 6270 1;
#X obj 752 -656 vsl 15 128 0 1 0 0 empty empty empty 0 -9 0 10 -262144
-1 -1 6376 1;
#X obj 342 -473 timeroll;
#X obj 550 -473 timeroll;
#X obj 755 -474 timeroll;
#X obj 573 -730 unpack f f f f;
#X obj 579 -834 dn.node 1;
#X obj 957 -658 vsl 15 128 0 1 0 0 empty empty empty 0 -9 0 10 -262144
-1 -1 6755 1;
#X obj 960 -476 timeroll;
#X floatatom -64 -417 5 0 0 0 - - -;
#X obj 69 -257 bng 15 250 50 0 empty empty empty 17 7 0 10 -262144
-1 -1;
#X text 90 -289 Bang in right inlet re-initializes \, as does bang
sent to "dn.node" (see above);
#X text -84 -205 Arguments: node id \, number of slots \, minibee id
;
#X obj -65 -227 dn.mapnode 3001 1 1;
#X obj -65 -258 pack 0;
#X obj -64 -376 scale 0.5 0.9 0 255;
#X floatatom -65 -296 5 0 0 0 - - -;
#X obj -65 -337 clip 0 255;
#X connect 3 0 2 0;
#X connect 8 0 11 0;
#X connect 8 0 10 0;
#X connect 11 0 9 0;
#X connect 15 0 16 0;
#X connect 17 0 28 0;
#X connect 21 0 24 0;
#X connect 21 0 31 0;
#X connect 22 0 25 0;
#X connect 23 0 26 0;
#X connect 27 0 21 0;
#X connect 27 1 22 0;
#X connect 27 2 23 0;
#X connect 27 3 29 0;
#X connect 28 0 15 0;
#X connect 28 0 27 0;
#X connect 29 0 30 0;
#X connect 31 0 37 0;
#X connect 32 0 35 1;
#X connect 36 0 35 0;
#X connect 37 0 39 0;
#X connect 38 0 36 0;
#X connect 39 0 38 0;
