{
	"patcher" : 	{
		"fileversion" : 1,
		"rect" : [ -548.0, 44.0, 1305.0, 560.0 ],
		"bglocked" : 0,
		"defrect" : [ -548.0, 44.0, 1305.0, 560.0 ],
		"openrect" : [ 0.0, 0.0, 0.0, 0.0 ],
		"openinpresentation" : 0,
		"default_fontsize" : 12.0,
		"default_fontface" : 0,
		"default_fontname" : "Arial",
		"gridonopen" : 0,
		"gridsize" : [ 15.0, 15.0 ],
		"gridsnaponopen" : 0,
		"toolbarvisible" : 1,
		"boxanimatetime" : 200,
		"imprint" : 0,
		"enablehscroll" : 1,
		"enablevscroll" : 1,
		"devicewidth" : 0.0,
		"boxes" : [ 			{
				"box" : 				{
					"maxclass" : "comment",
					"text" : "timeroll",
					"numoutlets" : 0,
					"fontname" : "Arial",
					"fontsize" : 12.0,
					"patching_rect" : [ 1104.0, 508.0, 150.0, 20.0 ],
					"id" : "obj-59",
					"numinlets" : 1
				}

			}
, 			{
				"box" : 				{
					"maxclass" : "comment",
					"text" : "timeroll",
					"numoutlets" : 0,
					"fontname" : "Arial",
					"fontsize" : 12.0,
					"patching_rect" : [ 901.0, 508.0, 150.0, 20.0 ],
					"id" : "obj-58",
					"numinlets" : 1
				}

			}
, 			{
				"box" : 				{
					"maxclass" : "comment",
					"text" : "timeroll",
					"numoutlets" : 0,
					"fontname" : "Arial",
					"fontsize" : 12.0,
					"patching_rect" : [ 698.0, 508.0, 150.0, 20.0 ],
					"id" : "obj-57",
					"numinlets" : 1
				}

			}
, 			{
				"box" : 				{
					"maxclass" : "multislider",
					"contdata" : 1,
					"candicane4" : [ 0.439216, 0.619608, 0.070588, 1.0 ],
					"numoutlets" : 2,
					"peakcolor" : [ 0.498039, 0.498039, 0.498039, 1.0 ],
					"candicane3" : [ 0.290196, 0.411765, 0.713726, 1.0 ],
					"outlettype" : [ "", "" ],
					"candicane8" : [ 0.027451, 0.447059, 0.501961, 1.0 ],
					"candicane2" : [ 0.145098, 0.203922, 0.356863, 1.0 ],
					"setstyle" : 2,
					"candicane7" : [ 0.878431, 0.243137, 0.145098, 1.0 ],
					"candicane6" : [ 0.733333, 0.035294, 0.788235, 1.0 ],
					"patching_rect" : [ 1103.0, 381.0, 173.0, 126.0 ],
					"id" : "obj-55",
					"setminmax" : [ 0.0, 1.0 ],
					"numinlets" : 1,
					"candicane5" : [ 0.584314, 0.827451, 0.431373, 1.0 ]
				}

			}
, 			{
				"box" : 				{
					"maxclass" : "multislider",
					"contdata" : 1,
					"candicane4" : [ 0.439216, 0.619608, 0.070588, 1.0 ],
					"numoutlets" : 2,
					"peakcolor" : [ 0.498039, 0.498039, 0.498039, 1.0 ],
					"candicane3" : [ 0.290196, 0.411765, 0.713726, 1.0 ],
					"outlettype" : [ "", "" ],
					"candicane8" : [ 0.027451, 0.447059, 0.501961, 1.0 ],
					"candicane2" : [ 0.145098, 0.203922, 0.356863, 1.0 ],
					"setstyle" : 2,
					"candicane7" : [ 0.878431, 0.243137, 0.145098, 1.0 ],
					"candicane6" : [ 0.733333, 0.035294, 0.788235, 1.0 ],
					"patching_rect" : [ 901.0, 381.0, 173.0, 126.0 ],
					"id" : "obj-54",
					"setminmax" : [ 0.0, 1.0 ],
					"numinlets" : 1,
					"candicane5" : [ 0.584314, 0.827451, 0.431373, 1.0 ]
				}

			}
, 			{
				"box" : 				{
					"maxclass" : "multislider",
					"hint" : "",
					"annotation" : "",
					"contdata" : 1,
					"candicane4" : [ 0.439216, 0.619608, 0.070588, 1.0 ],
					"numoutlets" : 2,
					"peakcolor" : [ 0.498039, 0.498039, 0.498039, 1.0 ],
					"candicane3" : [ 0.290196, 0.411765, 0.713726, 1.0 ],
					"outlettype" : [ "", "" ],
					"candicane8" : [ 0.027451, 0.447059, 0.501961, 1.0 ],
					"candicane2" : [ 0.145098, 0.203922, 0.356863, 1.0 ],
					"setstyle" : 2,
					"candicane7" : [ 0.878431, 0.243137, 0.145098, 1.0 ],
					"candicane6" : [ 0.733333, 0.035294, 0.788235, 1.0 ],
					"patching_rect" : [ 699.0, 381.0, 173.0, 126.0 ],
					"id" : "obj-52",
					"setminmax" : [ 0.0, 1.0 ],
					"numinlets" : 1,
					"candicane5" : [ 0.584314, 0.827451, 0.431373, 1.0 ]
				}

			}
, 			{
				"box" : 				{
					"maxclass" : "newobj",
					"text" : "scale 0. 255. 0. 1.",
					"numoutlets" : 1,
					"fontname" : "Arial",
					"outlettype" : [ "" ],
					"fontsize" : 12.0,
					"patching_rect" : [ 1109.0, 353.0, 105.0, 20.0 ],
					"id" : "obj-50",
					"numinlets" : 6
				}

			}
, 			{
				"box" : 				{
					"maxclass" : "newobj",
					"text" : "scale 0. 255. 0. 1.",
					"numoutlets" : 1,
					"fontname" : "Arial",
					"outlettype" : [ "" ],
					"fontsize" : 12.0,
					"patching_rect" : [ 904.0, 353.0, 105.0, 20.0 ],
					"id" : "obj-49",
					"numinlets" : 6
				}

			}
, 			{
				"box" : 				{
					"maxclass" : "newobj",
					"text" : "scale 0. 255. 0. 1.",
					"numoutlets" : 1,
					"fontname" : "Arial",
					"outlettype" : [ "" ],
					"fontsize" : 12.0,
					"patching_rect" : [ 696.0, 353.0, 105.0, 20.0 ],
					"id" : "obj-48",
					"numinlets" : 6
				}

			}
, 			{
				"box" : 				{
					"maxclass" : "slider",
					"numoutlets" : 1,
					"outlettype" : [ "" ],
					"size" : 255.0,
					"patching_rect" : [ 1116.0, 204.0, 20.0, 140.0 ],
					"id" : "obj-40",
					"numinlets" : 1
				}

			}
, 			{
				"box" : 				{
					"maxclass" : "slider",
					"numoutlets" : 1,
					"outlettype" : [ "" ],
					"size" : 255.0,
					"patching_rect" : [ 910.0, 204.0, 20.0, 140.0 ],
					"id" : "obj-37",
					"numinlets" : 1
				}

			}
, 			{
				"box" : 				{
					"maxclass" : "slider",
					"numoutlets" : 1,
					"outlettype" : [ "" ],
					"size" : 255.0,
					"patching_rect" : [ 704.0, 204.0, 20.0, 140.0 ],
					"id" : "obj-34",
					"numinlets" : 1
				}

			}
, 			{
				"box" : 				{
					"maxclass" : "comment",
					"text" : "data here matches the data sent to makenode",
					"numoutlets" : 0,
					"fontname" : "Arial",
					"fontsize" : 12.0,
					"patching_rect" : [ 805.0, 114.0, 273.0, 20.0 ],
					"id" : "obj-32",
					"numinlets" : 1
				}

			}
, 			{
				"box" : 				{
					"maxclass" : "comment",
					"text" : "Arguments: node id",
					"numoutlets" : 0,
					"fontname" : "Arial",
					"fontsize" : 12.0,
					"patching_rect" : [ 805.0, 55.0, 150.0, 20.0 ],
					"id" : "obj-27",
					"numinlets" : 1
				}

			}
, 			{
				"box" : 				{
					"maxclass" : "comment",
					"text" : "this node subscribes to the node you just made!",
					"numoutlets" : 0,
					"fontname" : "Arial",
					"fontsize" : 12.0,
					"patching_rect" : [ 736.0, 23.0, 288.0, 20.0 ],
					"id" : "obj-24",
					"numinlets" : 1
				}

			}
, 			{
				"box" : 				{
					"maxclass" : "newobj",
					"text" : "unpack 0. 0. 0.",
					"numoutlets" : 3,
					"fontname" : "Arial",
					"outlettype" : [ "float", "float", "float" ],
					"fontsize" : 12.0,
					"patching_rect" : [ 705.0, 164.0, 89.0, 20.0 ],
					"id" : "obj-18",
					"numinlets" : 1
				}

			}
, 			{
				"box" : 				{
					"maxclass" : "message",
					"text" : "56 67 102",
					"numoutlets" : 1,
					"fontname" : "Arial",
					"outlettype" : [ "" ],
					"fontsize" : 12.0,
					"patching_rect" : [ 788.0, 137.0, 64.0, 18.0 ],
					"id" : "obj-13",
					"numinlets" : 2
				}

			}
, 			{
				"box" : 				{
					"maxclass" : "newobj",
					"text" : "prepend set",
					"numoutlets" : 1,
					"fontname" : "Arial",
					"outlettype" : [ "" ],
					"fontsize" : 12.0,
					"patching_rect" : [ 737.0, 90.0, 74.0, 20.0 ],
					"id" : "obj-7",
					"numinlets" : 1
				}

			}
, 			{
				"box" : 				{
					"maxclass" : "button",
					"numoutlets" : 1,
					"outlettype" : [ "bang" ],
					"patching_rect" : [ 705.0, 24.0, 20.0, 20.0 ],
					"id" : "obj-6",
					"numinlets" : 1
				}

			}
, 			{
				"box" : 				{
					"maxclass" : "newobj",
					"text" : "dn.node 4000",
					"numoutlets" : 2,
					"fontname" : "Arial",
					"outlettype" : [ "", "" ],
					"fontsize" : 12.0,
					"patching_rect" : [ 705.0, 55.0, 84.0, 20.0 ],
					"id" : "obj-1",
					"numinlets" : 1
				}

			}
, 			{
				"box" : 				{
					"maxclass" : "newobj",
					"text" : "pv dn-clientName MaxClient",
					"numoutlets" : 1,
					"fontname" : "Arial",
					"outlettype" : [ "" ],
					"fontsize" : 12.0,
					"patching_rect" : [ 480.0, 49.0, 161.0, 20.0 ],
					"id" : "obj-44",
					"numinlets" : 1
				}

			}
, 			{
				"box" : 				{
					"maxclass" : "newobj",
					"text" : "pv dn-host 127.0.0.1",
					"numoutlets" : 1,
					"fontname" : "Arial",
					"outlettype" : [ "" ],
					"fontsize" : 12.0,
					"patching_rect" : [ 480.0, 26.0, 120.0, 20.0 ],
					"id" : "obj-43",
					"numinlets" : 1
				}

			}
, 			{
				"box" : 				{
					"maxclass" : "comment",
					"text" : "Print messages from the server",
					"numoutlets" : 0,
					"fontname" : "Arial",
					"fontsize" : 12.0,
					"patching_rect" : [ 442.0, 371.0, 189.0, 20.0 ],
					"id" : "obj-41",
					"numinlets" : 1
				}

			}
, 			{
				"box" : 				{
					"maxclass" : "newobj",
					"text" : "print SENSEWORLD",
					"numoutlets" : 0,
					"fontname" : "Arial",
					"fontsize" : 12.0,
					"patching_rect" : [ 465.0, 444.0, 123.0, 20.0 ],
					"id" : "obj-39",
					"numinlets" : 1
				}

			}
, 			{
				"box" : 				{
					"maxclass" : "button",
					"numoutlets" : 1,
					"outlettype" : [ "bang" ],
					"patching_rect" : [ 441.0, 441.0, 20.0, 20.0 ],
					"id" : "obj-38",
					"numinlets" : 1
				}

			}
, 			{
				"box" : 				{
					"maxclass" : "newobj",
					"text" : "route /ping",
					"numoutlets" : 2,
					"fontname" : "Arial",
					"outlettype" : [ "", "" ],
					"fontsize" : 12.0,
					"patching_rect" : [ 441.0, 416.0, 67.0, 20.0 ],
					"id" : "obj-36",
					"numinlets" : 1
				}

			}
, 			{
				"box" : 				{
					"maxclass" : "newobj",
					"text" : "r senseworld.local",
					"numoutlets" : 1,
					"fontname" : "Arial",
					"outlettype" : [ "" ],
					"fontsize" : 12.0,
					"patching_rect" : [ 441.0, 392.0, 107.0, 20.0 ],
					"id" : "obj-35",
					"numinlets" : 0
				}

			}
, 			{
				"box" : 				{
					"maxclass" : "comment",
					"text" : "Arguments: node id, number of slots",
					"numoutlets" : 0,
					"fontname" : "Arial",
					"fontsize" : 12.0,
					"patching_rect" : [ 189.0, 346.0, 228.0, 20.0 ],
					"id" : "obj-30",
					"numinlets" : 1
				}

			}
, 			{
				"box" : 				{
					"maxclass" : "comment",
					"text" : "Bang in right inlet re-initializes, as does bang sent to \"dn.node\" (see above)",
					"linecount" : 2,
					"numoutlets" : 0,
					"fontname" : "Arial",
					"fontsize" : 12.0,
					"patching_rect" : [ 189.0, 311.0, 308.0, 34.0 ],
					"id" : "obj-28",
					"numinlets" : 1
				}

			}
, 			{
				"box" : 				{
					"maxclass" : "button",
					"numoutlets" : 1,
					"outlettype" : [ "bang" ],
					"patching_rect" : [ 166.0, 314.0, 20.0, 20.0 ],
					"id" : "obj-26",
					"numinlets" : 1
				}

			}
, 			{
				"box" : 				{
					"maxclass" : "newobj",
					"text" : "dn.makenode 4000 3",
					"numoutlets" : 0,
					"fontname" : "Arial",
					"fontsize" : 12.0,
					"patching_rect" : [ 62.0, 346.0, 123.0, 20.0 ],
					"id" : "obj-23",
					"numinlets" : 2
				}

			}
, 			{
				"box" : 				{
					"maxclass" : "newobj",
					"text" : "pack 0. 0. 0.",
					"numoutlets" : 1,
					"fontname" : "Arial",
					"outlettype" : [ "" ],
					"fontsize" : 12.0,
					"patching_rect" : [ 62.0, 313.0, 76.0, 20.0 ],
					"id" : "obj-22",
					"numinlets" : 3
				}

			}
, 			{
				"box" : 				{
					"maxclass" : "button",
					"numoutlets" : 1,
					"outlettype" : [ "bang" ],
					"patching_rect" : [ 106.0, 278.0, 20.0, 20.0 ],
					"id" : "obj-21",
					"numinlets" : 1
				}

			}
, 			{
				"box" : 				{
					"maxclass" : "button",
					"numoutlets" : 1,
					"outlettype" : [ "bang" ],
					"patching_rect" : [ 67.0, 278.0, 20.0, 20.0 ],
					"id" : "obj-19",
					"numinlets" : 1
				}

			}
, 			{
				"box" : 				{
					"maxclass" : "comment",
					"text" : "Send data as a list of floats. Each element corresponds to a slot.",
					"linecount" : 2,
					"numoutlets" : 0,
					"fontname" : "Arial",
					"fontsize" : 12.0,
					"patching_rect" : [ 44.0, 176.0, 308.0, 34.0 ],
					"id" : "obj-14",
					"numinlets" : 1
				}

			}
, 			{
				"box" : 				{
					"maxclass" : "comment",
					"text" : "Similarly, the client name of the patch is shared between all objects and must also be included.",
					"linecount" : 2,
					"numoutlets" : 0,
					"fontname" : "Arial",
					"fontsize" : 12.0,
					"patching_rect" : [ 137.0, 109.0, 326.0, 34.0 ],
					"id" : "obj-12",
					"numinlets" : 1
				}

			}
, 			{
				"box" : 				{
					"maxclass" : "comment",
					"text" : "This abstraction learns the host IP address using the \"pv dn-host\" object - this MUST be included in the parent patcher.",
					"linecount" : 2,
					"numoutlets" : 0,
					"fontname" : "Arial",
					"fontsize" : 12.0,
					"patching_rect" : [ 137.0, 72.0, 339.0, 34.0 ],
					"id" : "obj-10",
					"numinlets" : 1
				}

			}
, 			{
				"box" : 				{
					"maxclass" : "comment",
					"text" : "<---------------",
					"numoutlets" : 0,
					"fontname" : "Arial",
					"fontsize" : 12.0,
					"patching_rect" : [ 67.0, 33.0, 81.0, 20.0 ],
					"id" : "obj-8",
					"numinlets" : 1
				}

			}
, 			{
				"box" : 				{
					"maxclass" : "comment",
					"text" : "IMPORTANT!\nRe-init after changing client name",
					"linecount" : 2,
					"numoutlets" : 0,
					"fontname" : "Arial",
					"fontsize" : 12.0,
					"patching_rect" : [ 137.0, 34.0, 195.0, 34.0 ],
					"bgcolor" : [ 0.960784, 0.439216, 0.478431, 1.0 ],
					"id" : "obj-5",
					"numinlets" : 1
				}

			}
, 			{
				"box" : 				{
					"maxclass" : "newobj",
					"text" : "s dn.node",
					"numoutlets" : 0,
					"fontname" : "Arial",
					"fontsize" : 12.0,
					"patching_rect" : [ 43.0, 61.0, 63.0, 20.0 ],
					"id" : "obj-3",
					"numinlets" : 1
				}

			}
, 			{
				"box" : 				{
					"maxclass" : "button",
					"numoutlets" : 1,
					"outlettype" : [ "bang" ],
					"patching_rect" : [ 43.0, 33.0, 20.0, 20.0 ],
					"id" : "obj-2",
					"numinlets" : 1
				}

			}
, 			{
				"box" : 				{
					"maxclass" : "flonum",
					"numoutlets" : 2,
					"fontname" : "Arial",
					"outlettype" : [ "float", "bang" ],
					"fontsize" : 12.0,
					"patching_rect" : [ 155.0, 242.0, 50.0, 20.0 ],
					"id" : "obj-17",
					"numinlets" : 1
				}

			}
, 			{
				"box" : 				{
					"maxclass" : "flonum",
					"numoutlets" : 2,
					"fontname" : "Arial",
					"outlettype" : [ "float", "bang" ],
					"fontsize" : 12.0,
					"patching_rect" : [ 102.0, 242.0, 50.0, 20.0 ],
					"id" : "obj-16",
					"numinlets" : 1
				}

			}
, 			{
				"box" : 				{
					"maxclass" : "flonum",
					"numoutlets" : 2,
					"fontname" : "Arial",
					"outlettype" : [ "float", "bang" ],
					"fontsize" : 12.0,
					"patching_rect" : [ 49.0, 242.0, 50.0, 20.0 ],
					"id" : "obj-15",
					"numinlets" : 1
				}

			}
 ],
		"lines" : [ 			{
				"patchline" : 				{
					"source" : [ "obj-50", 0 ],
					"destination" : [ "obj-55", 0 ],
					"hidden" : 0,
					"midpoints" : [  ]
				}

			}
, 			{
				"patchline" : 				{
					"source" : [ "obj-49", 0 ],
					"destination" : [ "obj-54", 0 ],
					"hidden" : 0,
					"midpoints" : [  ]
				}

			}
, 			{
				"patchline" : 				{
					"source" : [ "obj-48", 0 ],
					"destination" : [ "obj-52", 0 ],
					"hidden" : 0,
					"midpoints" : [  ]
				}

			}
, 			{
				"patchline" : 				{
					"source" : [ "obj-40", 0 ],
					"destination" : [ "obj-50", 0 ],
					"hidden" : 0,
					"midpoints" : [  ]
				}

			}
, 			{
				"patchline" : 				{
					"source" : [ "obj-37", 0 ],
					"destination" : [ "obj-49", 0 ],
					"hidden" : 0,
					"midpoints" : [  ]
				}

			}
, 			{
				"patchline" : 				{
					"source" : [ "obj-34", 0 ],
					"destination" : [ "obj-48", 0 ],
					"hidden" : 0,
					"midpoints" : [  ]
				}

			}
, 			{
				"patchline" : 				{
					"source" : [ "obj-18", 2 ],
					"destination" : [ "obj-40", 0 ],
					"hidden" : 0,
					"midpoints" : [  ]
				}

			}
, 			{
				"patchline" : 				{
					"source" : [ "obj-18", 1 ],
					"destination" : [ "obj-37", 0 ],
					"hidden" : 0,
					"midpoints" : [  ]
				}

			}
, 			{
				"patchline" : 				{
					"source" : [ "obj-18", 0 ],
					"destination" : [ "obj-34", 0 ],
					"hidden" : 0,
					"midpoints" : [  ]
				}

			}
, 			{
				"patchline" : 				{
					"source" : [ "obj-1", 0 ],
					"destination" : [ "obj-18", 0 ],
					"hidden" : 0,
					"midpoints" : [  ]
				}

			}
, 			{
				"patchline" : 				{
					"source" : [ "obj-1", 0 ],
					"destination" : [ "obj-7", 0 ],
					"hidden" : 0,
					"midpoints" : [  ]
				}

			}
, 			{
				"patchline" : 				{
					"source" : [ "obj-7", 0 ],
					"destination" : [ "obj-13", 0 ],
					"hidden" : 0,
					"midpoints" : [  ]
				}

			}
, 			{
				"patchline" : 				{
					"source" : [ "obj-6", 0 ],
					"destination" : [ "obj-1", 0 ],
					"hidden" : 0,
					"midpoints" : [  ]
				}

			}
, 			{
				"patchline" : 				{
					"source" : [ "obj-2", 0 ],
					"destination" : [ "obj-3", 0 ],
					"hidden" : 0,
					"midpoints" : [  ]
				}

			}
, 			{
				"patchline" : 				{
					"source" : [ "obj-26", 0 ],
					"destination" : [ "obj-23", 1 ],
					"hidden" : 0,
					"midpoints" : [  ]
				}

			}
, 			{
				"patchline" : 				{
					"source" : [ "obj-35", 0 ],
					"destination" : [ "obj-36", 0 ],
					"hidden" : 0,
					"midpoints" : [  ]
				}

			}
, 			{
				"patchline" : 				{
					"source" : [ "obj-36", 0 ],
					"destination" : [ "obj-38", 0 ],
					"hidden" : 0,
					"midpoints" : [  ]
				}

			}
, 			{
				"patchline" : 				{
					"source" : [ "obj-35", 0 ],
					"destination" : [ "obj-39", 0 ],
					"hidden" : 0,
					"midpoints" : [  ]
				}

			}
, 			{
				"patchline" : 				{
					"source" : [ "obj-21", 0 ],
					"destination" : [ "obj-22", 0 ],
					"hidden" : 0,
					"midpoints" : [  ]
				}

			}
, 			{
				"patchline" : 				{
					"source" : [ "obj-19", 0 ],
					"destination" : [ "obj-22", 0 ],
					"hidden" : 0,
					"midpoints" : [  ]
				}

			}
, 			{
				"patchline" : 				{
					"source" : [ "obj-22", 0 ],
					"destination" : [ "obj-23", 0 ],
					"hidden" : 0,
					"midpoints" : [  ]
				}

			}
, 			{
				"patchline" : 				{
					"source" : [ "obj-15", 0 ],
					"destination" : [ "obj-22", 0 ],
					"hidden" : 0,
					"midpoints" : [  ]
				}

			}
, 			{
				"patchline" : 				{
					"source" : [ "obj-16", 0 ],
					"destination" : [ "obj-22", 1 ],
					"hidden" : 0,
					"midpoints" : [  ]
				}

			}
, 			{
				"patchline" : 				{
					"source" : [ "obj-16", 0 ],
					"destination" : [ "obj-19", 0 ],
					"hidden" : 0,
					"midpoints" : [  ]
				}

			}
, 			{
				"patchline" : 				{
					"source" : [ "obj-17", 0 ],
					"destination" : [ "obj-22", 2 ],
					"hidden" : 0,
					"midpoints" : [  ]
				}

			}
, 			{
				"patchline" : 				{
					"source" : [ "obj-17", 0 ],
					"destination" : [ "obj-21", 0 ],
					"hidden" : 0,
					"midpoints" : [  ]
				}

			}
 ]
	}

}
