{
	"patcher" : 	{
		"fileversion" : 1,
		"rect" : [ 192.0, 245.0, 1241.0, 703.0 ],
		"bglocked" : 0,
		"defrect" : [ 192.0, 245.0, 1241.0, 703.0 ],
		"openrect" : [ 0.0, 0.0, 0.0, 0.0 ],
		"openinpresentation" : 0,
		"default_fontsize" : 12.0,
		"default_fontface" : 0,
		"default_fontname" : "Arial",
		"gridonopen" : 0,
		"gridsize" : [ 15.0, 15.0 ],
		"gridsnaponopen" : 0,
		"toolbarvisible" : 1,
		"boxanimatetime" : 200,
		"imprint" : 0,
		"enablehscroll" : 1,
		"enablevscroll" : 1,
		"devicewidth" : 0.0,
		"boxes" : [ 			{
				"box" : 				{
					"maxclass" : "comment",
					"text" : "data",
					"fontsize" : 12.0,
					"numinlets" : 1,
					"patching_rect" : [ 199.0, 309.0, 42.0, 20.0 ],
					"numoutlets" : 0,
					"id" : "obj-16",
					"fontname" : "Arial"
				}

			}
, 			{
				"box" : 				{
					"maxclass" : "button",
					"outlettype" : [ "bang" ],
					"numinlets" : 1,
					"patching_rect" : [ 184.0, 309.0, 20.0, 20.0 ],
					"numoutlets" : 1,
					"id" : "obj-17"
				}

			}
, 			{
				"box" : 				{
					"maxclass" : "umenu",
					"outlettype" : [ "int", "", "" ],
					"fontsize" : 12.0,
					"items" : [ "/query/expected", ",", "/query/nodes", ",", "/query/slots" ],
					"numinlets" : 1,
					"types" : [  ],
					"patching_rect" : [ 19.0, 249.0, 108.0, 20.0 ],
					"numoutlets" : 3,
					"id" : "obj-25",
					"fontname" : "Arial"
				}

			}
, 			{
				"box" : 				{
					"maxclass" : "comment",
					"text" : "print",
					"fontsize" : 12.0,
					"numinlets" : 1,
					"patching_rect" : [ 154.0, 249.0, 32.0, 20.0 ],
					"numoutlets" : 0,
					"id" : "obj-19",
					"fontname" : "Arial"
				}

			}
, 			{
				"box" : 				{
					"maxclass" : "toggle",
					"outlettype" : [ "int" ],
					"numinlets" : 1,
					"patching_rect" : [ 184.0, 249.0, 20.0, 20.0 ],
					"numoutlets" : 1,
					"id" : "obj-20"
				}

			}
, 			{
				"box" : 				{
					"maxclass" : "comment",
					"text" : "pings",
					"fontsize" : 12.0,
					"numinlets" : 1,
					"patching_rect" : [ 79.0, 309.0, 42.0, 20.0 ],
					"numoutlets" : 0,
					"id" : "obj-21",
					"fontname" : "Arial"
				}

			}
, 			{
				"box" : 				{
					"maxclass" : "button",
					"outlettype" : [ "bang" ],
					"numinlets" : 1,
					"patching_rect" : [ 64.0, 309.0, 20.0, 20.0 ],
					"numoutlets" : 1,
					"id" : "obj-22"
				}

			}
, 			{
				"box" : 				{
					"maxclass" : "newobj",
					"text" : "p talk_to_datanetwork",
					"outlettype" : [ "", "" ],
					"fontsize" : 12.0,
					"numinlets" : 2,
					"patching_rect" : [ 64.0, 279.0, 139.0, 20.0 ],
					"numoutlets" : 2,
					"id" : "obj-23",
					"fontname" : "Arial",
					"patcher" : 					{
						"fileversion" : 1,
						"rect" : [ 723.0, 59.0, 640.0, 480.0 ],
						"bglocked" : 0,
						"defrect" : [ 723.0, 59.0, 640.0, 480.0 ],
						"openrect" : [ 0.0, 0.0, 0.0, 0.0 ],
						"openinpresentation" : 0,
						"default_fontsize" : 12.0,
						"default_fontface" : 0,
						"default_fontname" : "Arial",
						"gridonopen" : 0,
						"gridsize" : [ 15.0, 15.0 ],
						"gridsnaponopen" : 0,
						"toolbarvisible" : 1,
						"boxanimatetime" : 200,
						"imprint" : 0,
						"enablehscroll" : 1,
						"enablevscroll" : 1,
						"devicewidth" : 0.0,
						"boxes" : [ 							{
								"box" : 								{
									"maxclass" : "outlet",
									"numinlets" : 1,
									"patching_rect" : [ 330.0, 180.0, 25.0, 25.0 ],
									"numoutlets" : 0,
									"id" : "obj-18",
									"comment" : ""
								}

							}
, 							{
								"box" : 								{
									"maxclass" : "newobj",
									"text" : "append 6009 max_client",
									"outlettype" : [ "" ],
									"fontsize" : 12.0,
									"numinlets" : 1,
									"patching_rect" : [ 60.0, 180.0, 141.0, 20.0 ],
									"numoutlets" : 1,
									"id" : "obj-20",
									"fontname" : "Arial"
								}

							}
, 							{
								"box" : 								{
									"maxclass" : "button",
									"outlettype" : [ "bang" ],
									"numinlets" : 1,
									"patching_rect" : [ 120.0, 105.0, 20.0, 20.0 ],
									"numoutlets" : 1,
									"id" : "obj-19"
								}

							}
, 							{
								"box" : 								{
									"maxclass" : "newobj",
									"text" : "r dn.node",
									"outlettype" : [ "" ],
									"fontsize" : 12.0,
									"numinlets" : 0,
									"patching_rect" : [ 120.0, 75.0, 61.0, 20.0 ],
									"numoutlets" : 1,
									"id" : "obj-9",
									"fontname" : "Arial"
								}

							}
, 							{
								"box" : 								{
									"maxclass" : "newobj",
									"text" : "print",
									"fontsize" : 12.0,
									"numinlets" : 1,
									"patching_rect" : [ 555.0, 180.0, 34.0, 20.0 ],
									"numoutlets" : 0,
									"id" : "obj-17",
									"fontname" : "Arial"
								}

							}
, 							{
								"box" : 								{
									"maxclass" : "newobj",
									"text" : "unpack s i",
									"outlettype" : [ "", "int" ],
									"fontsize" : 12.0,
									"numinlets" : 1,
									"patching_rect" : [ 390.0, 180.0, 65.0, 20.0 ],
									"numoutlets" : 2,
									"id" : "obj-16",
									"fontname" : "Arial"
								}

							}
, 							{
								"box" : 								{
									"maxclass" : "outlet",
									"numinlets" : 1,
									"patching_rect" : [ 270.0, 180.0, 25.0, 25.0 ],
									"numoutlets" : 0,
									"id" : "obj-15",
									"comment" : ""
								}

							}
, 							{
								"box" : 								{
									"maxclass" : "newobj",
									"text" : "route /datanetwork/announce",
									"outlettype" : [ "", "" ],
									"fontsize" : 12.0,
									"numinlets" : 1,
									"patching_rect" : [ 390.0, 150.0, 166.0, 20.0 ],
									"numoutlets" : 2,
									"id" : "obj-14",
									"fontname" : "Arial"
								}

							}
, 							{
								"box" : 								{
									"maxclass" : "newobj",
									"text" : "dn.netport",
									"outlettype" : [ "" ],
									"fontsize" : 12.0,
									"numinlets" : 1,
									"patching_rect" : [ 195.0, 225.0, 65.0, 20.0 ],
									"numoutlets" : 1,
									"id" : "obj-13",
									"fontname" : "Arial"
								}

							}
, 							{
								"box" : 								{
									"maxclass" : "newobj",
									"text" : "pv dn-host",
									"outlettype" : [ "" ],
									"fontsize" : 12.0,
									"numinlets" : 1,
									"patching_rect" : [ 195.0, 150.0, 67.0, 20.0 ],
									"numoutlets" : 1,
									"id" : "obj-12",
									"fontname" : "Arial"
								}

							}
, 							{
								"box" : 								{
									"maxclass" : "newobj",
									"text" : "deferlow",
									"outlettype" : [ "" ],
									"fontsize" : 12.0,
									"numinlets" : 1,
									"patching_rect" : [ 195.0, 105.0, 56.0, 20.0 ],
									"numoutlets" : 1,
									"id" : "obj-11",
									"fontname" : "Arial"
								}

							}
, 							{
								"box" : 								{
									"maxclass" : "newobj",
									"text" : "loadbang",
									"outlettype" : [ "bang" ],
									"fontsize" : 12.0,
									"numinlets" : 1,
									"patching_rect" : [ 195.0, 75.0, 60.0, 20.0 ],
									"numoutlets" : 1,
									"id" : "obj-10",
									"fontname" : "Arial"
								}

							}
, 							{
								"box" : 								{
									"maxclass" : "newobj",
									"text" : "gate",
									"outlettype" : [ "" ],
									"fontsize" : 12.0,
									"numinlets" : 2,
									"patching_rect" : [ 555.0, 150.0, 34.0, 20.0 ],
									"numoutlets" : 1,
									"id" : "obj-8",
									"fontname" : "Arial"
								}

							}
, 							{
								"box" : 								{
									"maxclass" : "inlet",
									"outlettype" : [ "int" ],
									"numinlets" : 0,
									"patching_rect" : [ 555.0, 75.0, 25.0, 25.0 ],
									"numoutlets" : 1,
									"id" : "obj-7",
									"comment" : ""
								}

							}
, 							{
								"box" : 								{
									"maxclass" : "newobj",
									"text" : "route /ping /data/node",
									"outlettype" : [ "", "", "" ],
									"fontsize" : 12.0,
									"numinlets" : 1,
									"patching_rect" : [ 270.0, 105.0, 139.0, 20.0 ],
									"numoutlets" : 3,
									"id" : "obj-6",
									"fontname" : "Arial"
								}

							}
, 							{
								"box" : 								{
									"maxclass" : "newobj",
									"text" : "udpreceive 6009",
									"outlettype" : [ "" ],
									"fontsize" : 12.0,
									"numinlets" : 1,
									"patching_rect" : [ 270.0, 75.0, 99.0, 20.0 ],
									"numoutlets" : 1,
									"id" : "obj-5",
									"fontname" : "Arial"
								}

							}
, 							{
								"box" : 								{
									"maxclass" : "newobj",
									"text" : "prepend host",
									"outlettype" : [ "" ],
									"fontsize" : 12.0,
									"numinlets" : 1,
									"patching_rect" : [ 105.0, 225.0, 81.0, 20.0 ],
									"numoutlets" : 1,
									"id" : "obj-4",
									"fontname" : "Arial"
								}

							}
, 							{
								"box" : 								{
									"maxclass" : "newobj",
									"text" : "prepend port",
									"outlettype" : [ "" ],
									"fontsize" : 12.0,
									"numinlets" : 1,
									"patching_rect" : [ 195.0, 270.0, 79.0, 20.0 ],
									"numoutlets" : 1,
									"id" : "obj-3",
									"fontname" : "Arial"
								}

							}
, 							{
								"box" : 								{
									"maxclass" : "newobj",
									"text" : "udpsend localhost 7474",
									"fontsize" : 12.0,
									"numinlets" : 1,
									"patching_rect" : [ 60.0, 315.0, 137.0, 20.0 ],
									"numoutlets" : 0,
									"id" : "obj-2",
									"fontname" : "Arial"
								}

							}
, 							{
								"box" : 								{
									"maxclass" : "inlet",
									"outlettype" : [ "" ],
									"numinlets" : 0,
									"patching_rect" : [ 60.0, 75.0, 25.0, 25.0 ],
									"numoutlets" : 1,
									"id" : "obj-1",
									"comment" : ""
								}

							}
 ],
						"lines" : [ 							{
								"patchline" : 								{
									"source" : [ "obj-9", 0 ],
									"destination" : [ "obj-19", 0 ],
									"hidden" : 0,
									"midpoints" : [  ]
								}

							}
, 							{
								"patchline" : 								{
									"source" : [ "obj-8", 0 ],
									"destination" : [ "obj-17", 0 ],
									"hidden" : 0,
									"midpoints" : [  ]
								}

							}
, 							{
								"patchline" : 								{
									"source" : [ "obj-7", 0 ],
									"destination" : [ "obj-8", 0 ],
									"hidden" : 0,
									"midpoints" : [  ]
								}

							}
, 							{
								"patchline" : 								{
									"source" : [ "obj-6", 2 ],
									"destination" : [ "obj-8", 1 ],
									"hidden" : 0,
									"midpoints" : [ 399.5, 137.0, 579.5, 137.0 ]
								}

							}
, 							{
								"patchline" : 								{
									"source" : [ "obj-6", 1 ],
									"destination" : [ "obj-18", 0 ],
									"hidden" : 0,
									"midpoints" : [  ]
								}

							}
, 							{
								"patchline" : 								{
									"source" : [ "obj-6", 0 ],
									"destination" : [ "obj-15", 0 ],
									"hidden" : 0,
									"midpoints" : [  ]
								}

							}
, 							{
								"patchline" : 								{
									"source" : [ "obj-6", 2 ],
									"destination" : [ "obj-14", 0 ],
									"hidden" : 0,
									"midpoints" : [  ]
								}

							}
, 							{
								"patchline" : 								{
									"source" : [ "obj-5", 0 ],
									"destination" : [ "obj-6", 0 ],
									"hidden" : 0,
									"midpoints" : [  ]
								}

							}
, 							{
								"patchline" : 								{
									"source" : [ "obj-4", 0 ],
									"destination" : [ "obj-2", 0 ],
									"hidden" : 0,
									"midpoints" : [ 114.5, 287.0, 69.5, 287.0 ]
								}

							}
, 							{
								"patchline" : 								{
									"source" : [ "obj-3", 0 ],
									"destination" : [ "obj-2", 0 ],
									"hidden" : 0,
									"midpoints" : [ 204.5, 302.0, 69.5, 302.0 ]
								}

							}
, 							{
								"patchline" : 								{
									"source" : [ "obj-20", 0 ],
									"destination" : [ "obj-2", 0 ],
									"hidden" : 0,
									"midpoints" : [  ]
								}

							}
, 							{
								"patchline" : 								{
									"source" : [ "obj-19", 0 ],
									"destination" : [ "obj-12", 0 ],
									"hidden" : 0,
									"midpoints" : [ 129.5, 137.0, 204.5, 137.0 ]
								}

							}
, 							{
								"patchline" : 								{
									"source" : [ "obj-16", 0 ],
									"destination" : [ "obj-4", 0 ],
									"hidden" : 0,
									"midpoints" : [ 399.5, 212.0, 114.5, 212.0 ]
								}

							}
, 							{
								"patchline" : 								{
									"source" : [ "obj-16", 1 ],
									"destination" : [ "obj-3", 0 ],
									"hidden" : 0,
									"midpoints" : [ 445.5, 257.0, 204.5, 257.0 ]
								}

							}
, 							{
								"patchline" : 								{
									"source" : [ "obj-14", 0 ],
									"destination" : [ "obj-16", 0 ],
									"hidden" : 0,
									"midpoints" : [  ]
								}

							}
, 							{
								"patchline" : 								{
									"source" : [ "obj-13", 0 ],
									"destination" : [ "obj-3", 0 ],
									"hidden" : 0,
									"midpoints" : [  ]
								}

							}
, 							{
								"patchline" : 								{
									"source" : [ "obj-12", 0 ],
									"destination" : [ "obj-4", 0 ],
									"hidden" : 0,
									"midpoints" : [ 204.5, 212.0, 114.5, 212.0 ]
								}

							}
, 							{
								"patchline" : 								{
									"source" : [ "obj-12", 0 ],
									"destination" : [ "obj-13", 0 ],
									"hidden" : 0,
									"midpoints" : [  ]
								}

							}
, 							{
								"patchline" : 								{
									"source" : [ "obj-11", 0 ],
									"destination" : [ "obj-12", 0 ],
									"hidden" : 0,
									"midpoints" : [  ]
								}

							}
, 							{
								"patchline" : 								{
									"source" : [ "obj-10", 0 ],
									"destination" : [ "obj-11", 0 ],
									"hidden" : 0,
									"midpoints" : [  ]
								}

							}
, 							{
								"patchline" : 								{
									"source" : [ "obj-1", 0 ],
									"destination" : [ "obj-20", 0 ],
									"hidden" : 0,
									"midpoints" : [  ]
								}

							}
 ]
					}
,
					"saved_object_attributes" : 					{
						"globalpatchername" : "",
						"default_fontface" : 0,
						"fontface" : 0,
						"fontsize" : 12.0,
						"default_fontname" : "Arial",
						"default_fontsize" : 12.0,
						"fontname" : "Arial"
					}

				}

			}
, 			{
				"box" : 				{
					"maxclass" : "comment",
					"text" : "timeroll",
					"fontsize" : 12.0,
					"numinlets" : 1,
					"patching_rect" : [ 1060.0, 578.0, 150.0, 20.0 ],
					"numoutlets" : 0,
					"id" : "obj-4",
					"fontname" : "Arial"
				}

			}
, 			{
				"box" : 				{
					"maxclass" : "multislider",
					"outlettype" : [ "", "" ],
					"candicane6" : [ 0.733333, 0.035294, 0.788235, 1.0 ],
					"setminmax" : [ 0.0, 1.0 ],
					"candicane5" : [ 0.584314, 0.827451, 0.431373, 1.0 ],
					"candicane4" : [ 0.439216, 0.619608, 0.070588, 1.0 ],
					"contdata" : 1,
					"peakcolor" : [ 0.498039, 0.498039, 0.498039, 1.0 ],
					"candicane3" : [ 0.290196, 0.411765, 0.713726, 1.0 ],
					"numinlets" : 1,
					"candicane8" : [ 0.027451, 0.447059, 0.501961, 1.0 ],
					"patching_rect" : [ 1059.0, 451.0, 173.0, 126.0 ],
					"candicane2" : [ 0.145098, 0.203922, 0.356863, 1.0 ],
					"numoutlets" : 2,
					"setstyle" : 2,
					"candicane7" : [ 0.878431, 0.243137, 0.145098, 1.0 ],
					"id" : "obj-9"
				}

			}
, 			{
				"box" : 				{
					"maxclass" : "slider",
					"outlettype" : [ "" ],
					"numinlets" : 1,
					"size" : 1.0,
					"patching_rect" : [ 1072.0, 274.0, 20.0, 140.0 ],
					"numoutlets" : 1,
					"id" : "obj-15",
					"floatoutput" : 1
				}

			}
, 			{
				"box" : 				{
					"maxclass" : "comment",
					"text" : "timeroll",
					"fontsize" : 12.0,
					"numinlets" : 1,
					"patching_rect" : [ 871.0, 578.0, 150.0, 20.0 ],
					"numoutlets" : 0,
					"id" : "obj-59",
					"fontname" : "Arial"
				}

			}
, 			{
				"box" : 				{
					"maxclass" : "comment",
					"text" : "timeroll",
					"fontsize" : 12.0,
					"numinlets" : 1,
					"patching_rect" : [ 668.0, 578.0, 150.0, 20.0 ],
					"numoutlets" : 0,
					"id" : "obj-58",
					"fontname" : "Arial"
				}

			}
, 			{
				"box" : 				{
					"maxclass" : "comment",
					"text" : "timeroll",
					"fontsize" : 12.0,
					"numinlets" : 1,
					"patching_rect" : [ 465.0, 578.0, 150.0, 20.0 ],
					"numoutlets" : 0,
					"id" : "obj-57",
					"fontname" : "Arial"
				}

			}
, 			{
				"box" : 				{
					"maxclass" : "multislider",
					"outlettype" : [ "", "" ],
					"candicane6" : [ 0.733333, 0.035294, 0.788235, 1.0 ],
					"setminmax" : [ 0.0, 1.0 ],
					"candicane5" : [ 0.584314, 0.827451, 0.431373, 1.0 ],
					"candicane4" : [ 0.439216, 0.619608, 0.070588, 1.0 ],
					"contdata" : 1,
					"peakcolor" : [ 0.498039, 0.498039, 0.498039, 1.0 ],
					"candicane3" : [ 0.290196, 0.411765, 0.713726, 1.0 ],
					"numinlets" : 1,
					"candicane8" : [ 0.027451, 0.447059, 0.501961, 1.0 ],
					"patching_rect" : [ 870.0, 451.0, 173.0, 126.0 ],
					"candicane2" : [ 0.145098, 0.203922, 0.356863, 1.0 ],
					"numoutlets" : 2,
					"setstyle" : 2,
					"candicane7" : [ 0.878431, 0.243137, 0.145098, 1.0 ],
					"id" : "obj-55"
				}

			}
, 			{
				"box" : 				{
					"maxclass" : "multislider",
					"outlettype" : [ "", "" ],
					"candicane6" : [ 0.733333, 0.035294, 0.788235, 1.0 ],
					"setminmax" : [ 0.0, 1.0 ],
					"candicane5" : [ 0.584314, 0.827451, 0.431373, 1.0 ],
					"candicane4" : [ 0.439216, 0.619608, 0.070588, 1.0 ],
					"contdata" : 1,
					"peakcolor" : [ 0.498039, 0.498039, 0.498039, 1.0 ],
					"candicane3" : [ 0.290196, 0.411765, 0.713726, 1.0 ],
					"numinlets" : 1,
					"candicane8" : [ 0.027451, 0.447059, 0.501961, 1.0 ],
					"patching_rect" : [ 668.0, 451.0, 173.0, 126.0 ],
					"candicane2" : [ 0.145098, 0.203922, 0.356863, 1.0 ],
					"numoutlets" : 2,
					"setstyle" : 2,
					"candicane7" : [ 0.878431, 0.243137, 0.145098, 1.0 ],
					"id" : "obj-54"
				}

			}
, 			{
				"box" : 				{
					"maxclass" : "multislider",
					"hint" : "",
					"annotation" : "",
					"outlettype" : [ "", "" ],
					"candicane6" : [ 0.733333, 0.035294, 0.788235, 1.0 ],
					"setminmax" : [ 0.0, 1.0 ],
					"candicane5" : [ 0.584314, 0.827451, 0.431373, 1.0 ],
					"candicane4" : [ 0.439216, 0.619608, 0.070588, 1.0 ],
					"contdata" : 1,
					"peakcolor" : [ 0.498039, 0.498039, 0.498039, 1.0 ],
					"candicane3" : [ 0.290196, 0.411765, 0.713726, 1.0 ],
					"numinlets" : 1,
					"candicane8" : [ 0.027451, 0.447059, 0.501961, 1.0 ],
					"patching_rect" : [ 466.0, 451.0, 173.0, 126.0 ],
					"candicane2" : [ 0.145098, 0.203922, 0.356863, 1.0 ],
					"numoutlets" : 2,
					"setstyle" : 2,
					"candicane7" : [ 0.878431, 0.243137, 0.145098, 1.0 ],
					"id" : "obj-52"
				}

			}
, 			{
				"box" : 				{
					"maxclass" : "slider",
					"outlettype" : [ "" ],
					"numinlets" : 1,
					"size" : 1.0,
					"patching_rect" : [ 883.0, 274.0, 20.0, 140.0 ],
					"numoutlets" : 1,
					"id" : "obj-40",
					"floatoutput" : 1
				}

			}
, 			{
				"box" : 				{
					"maxclass" : "slider",
					"outlettype" : [ "" ],
					"numinlets" : 1,
					"size" : 1.0,
					"patching_rect" : [ 677.0, 274.0, 20.0, 140.0 ],
					"numoutlets" : 1,
					"id" : "obj-37",
					"floatoutput" : 1
				}

			}
, 			{
				"box" : 				{
					"maxclass" : "slider",
					"outlettype" : [ "" ],
					"numinlets" : 1,
					"size" : 1.0,
					"patching_rect" : [ 471.0, 274.0, 20.0, 140.0 ],
					"numoutlets" : 1,
					"id" : "obj-34",
					"floatoutput" : 1
				}

			}
, 			{
				"box" : 				{
					"maxclass" : "comment",
					"text" : "Arguments: client name, node id",
					"fontsize" : 12.0,
					"numinlets" : 1,
					"patching_rect" : [ 610.0, 125.0, 191.0, 20.0 ],
					"numoutlets" : 0,
					"id" : "obj-27",
					"fontname" : "Arial"
				}

			}
, 			{
				"box" : 				{
					"maxclass" : "comment",
					"text" : "this node subscribes to the minibee!",
					"fontsize" : 12.0,
					"numinlets" : 1,
					"patching_rect" : [ 503.0, 93.0, 288.0, 20.0 ],
					"numoutlets" : 0,
					"id" : "obj-24",
					"fontname" : "Arial"
				}

			}
, 			{
				"box" : 				{
					"maxclass" : "newobj",
					"text" : "unpack 0. 0. 0. 0.",
					"outlettype" : [ "float", "float", "float", "float" ],
					"fontsize" : 12.0,
					"numinlets" : 1,
					"patching_rect" : [ 472.0, 234.0, 103.0, 20.0 ],
					"numoutlets" : 4,
					"id" : "obj-18",
					"fontname" : "Arial"
				}

			}
, 			{
				"box" : 				{
					"maxclass" : "message",
					"text" : "0.92549 0.499573 0.525088 0.478452",
					"outlettype" : [ "" ],
					"fontsize" : 12.0,
					"numinlets" : 2,
					"patching_rect" : [ 555.0, 207.0, 214.0, 18.0 ],
					"numoutlets" : 1,
					"id" : "obj-13",
					"fontname" : "Arial"
				}

			}
, 			{
				"box" : 				{
					"maxclass" : "newobj",
					"text" : "prepend set",
					"outlettype" : [ "" ],
					"fontsize" : 12.0,
					"numinlets" : 1,
					"patching_rect" : [ 504.0, 160.0, 74.0, 20.0 ],
					"numoutlets" : 1,
					"id" : "obj-7",
					"fontname" : "Arial"
				}

			}
, 			{
				"box" : 				{
					"maxclass" : "button",
					"outlettype" : [ "bang" ],
					"numinlets" : 1,
					"patching_rect" : [ 472.0, 94.0, 20.0, 20.0 ],
					"numoutlets" : 1,
					"id" : "obj-6"
				}

			}
, 			{
				"box" : 				{
					"maxclass" : "newobj",
					"text" : "dn.node max_client 2",
					"outlettype" : [ "", "" ],
					"fontsize" : 12.0,
					"numinlets" : 1,
					"patching_rect" : [ 472.0, 125.0, 125.0, 20.0 ],
					"numoutlets" : 2,
					"id" : "obj-1",
					"fontname" : "Arial"
				}

			}
, 			{
				"box" : 				{
					"maxclass" : "newobj",
					"text" : "pv dn-host 127.0.0.1",
					"outlettype" : [ "" ],
					"fontsize" : 12.0,
					"numinlets" : 1,
					"patching_rect" : [ 329.0, 22.0, 120.0, 20.0 ],
					"numoutlets" : 1,
					"id" : "obj-43",
					"fontname" : "Arial"
				}

			}
, 			{
				"box" : 				{
					"maxclass" : "comment",
					"text" : "Send data as a list of floats. Each element corresponds to a slot.",
					"linecount" : 2,
					"fontsize" : 12.0,
					"numinlets" : 1,
					"patching_rect" : [ 14.0, 176.0, 308.0, 34.0 ],
					"numoutlets" : 0,
					"id" : "obj-14",
					"fontname" : "Arial"
				}

			}
, 			{
				"box" : 				{
					"maxclass" : "comment",
					"text" : "Similarly, the client name of the patch is shared between all objects and must also be included.",
					"linecount" : 2,
					"fontsize" : 12.0,
					"numinlets" : 1,
					"patching_rect" : [ 107.0, 109.0, 326.0, 34.0 ],
					"numoutlets" : 0,
					"id" : "obj-12",
					"fontname" : "Arial"
				}

			}
, 			{
				"box" : 				{
					"maxclass" : "comment",
					"text" : "This abstraction learns the host IP address using the \"pv dn-host\" object - this MUST be included in the parent patcher.",
					"linecount" : 2,
					"fontsize" : 12.0,
					"numinlets" : 1,
					"patching_rect" : [ 107.0, 72.0, 339.0, 34.0 ],
					"numoutlets" : 0,
					"id" : "obj-10",
					"fontname" : "Arial"
				}

			}
, 			{
				"box" : 				{
					"maxclass" : "comment",
					"text" : "<---------------",
					"fontsize" : 12.0,
					"numinlets" : 1,
					"patching_rect" : [ 37.0, 33.0, 81.0, 20.0 ],
					"numoutlets" : 0,
					"id" : "obj-8",
					"fontname" : "Arial"
				}

			}
, 			{
				"box" : 				{
					"maxclass" : "comment",
					"text" : "IMPORTANT!\nRe-init after changing client name",
					"linecount" : 2,
					"fontsize" : 12.0,
					"bgcolor" : [ 0.960784, 0.439216, 0.478431, 1.0 ],
					"numinlets" : 1,
					"patching_rect" : [ 107.0, 34.0, 195.0, 34.0 ],
					"numoutlets" : 0,
					"id" : "obj-5",
					"fontname" : "Arial"
				}

			}
, 			{
				"box" : 				{
					"maxclass" : "newobj",
					"text" : "s dn.node",
					"fontsize" : 12.0,
					"numinlets" : 1,
					"patching_rect" : [ 13.0, 61.0, 63.0, 20.0 ],
					"numoutlets" : 0,
					"id" : "obj-3",
					"fontname" : "Arial"
				}

			}
, 			{
				"box" : 				{
					"maxclass" : "button",
					"outlettype" : [ "bang" ],
					"numinlets" : 1,
					"patching_rect" : [ 13.0, 33.0, 20.0, 20.0 ],
					"numoutlets" : 1,
					"id" : "obj-2"
				}

			}
 ],
		"lines" : [ 			{
				"patchline" : 				{
					"source" : [ "obj-1", 0 ],
					"destination" : [ "obj-18", 0 ],
					"hidden" : 0,
					"midpoints" : [  ]
				}

			}
, 			{
				"patchline" : 				{
					"source" : [ "obj-6", 0 ],
					"destination" : [ "obj-1", 0 ],
					"hidden" : 0,
					"midpoints" : [  ]
				}

			}
, 			{
				"patchline" : 				{
					"source" : [ "obj-1", 0 ],
					"destination" : [ "obj-7", 0 ],
					"hidden" : 0,
					"midpoints" : [  ]
				}

			}
, 			{
				"patchline" : 				{
					"source" : [ "obj-18", 3 ],
					"destination" : [ "obj-15", 0 ],
					"hidden" : 0,
					"midpoints" : [  ]
				}

			}
, 			{
				"patchline" : 				{
					"source" : [ "obj-18", 0 ],
					"destination" : [ "obj-34", 0 ],
					"hidden" : 0,
					"midpoints" : [  ]
				}

			}
, 			{
				"patchline" : 				{
					"source" : [ "obj-18", 1 ],
					"destination" : [ "obj-37", 0 ],
					"hidden" : 0,
					"midpoints" : [  ]
				}

			}
, 			{
				"patchline" : 				{
					"source" : [ "obj-18", 2 ],
					"destination" : [ "obj-40", 0 ],
					"hidden" : 0,
					"midpoints" : [  ]
				}

			}
, 			{
				"patchline" : 				{
					"source" : [ "obj-7", 0 ],
					"destination" : [ "obj-13", 0 ],
					"hidden" : 0,
					"midpoints" : [  ]
				}

			}
, 			{
				"patchline" : 				{
					"source" : [ "obj-2", 0 ],
					"destination" : [ "obj-3", 0 ],
					"hidden" : 0,
					"midpoints" : [  ]
				}

			}
, 			{
				"patchline" : 				{
					"source" : [ "obj-23", 1 ],
					"destination" : [ "obj-17", 0 ],
					"hidden" : 0,
					"midpoints" : [  ]
				}

			}
, 			{
				"patchline" : 				{
					"source" : [ "obj-23", 0 ],
					"destination" : [ "obj-22", 0 ],
					"hidden" : 0,
					"midpoints" : [  ]
				}

			}
, 			{
				"patchline" : 				{
					"source" : [ "obj-25", 1 ],
					"destination" : [ "obj-23", 0 ],
					"hidden" : 0,
					"midpoints" : [  ]
				}

			}
, 			{
				"patchline" : 				{
					"source" : [ "obj-20", 0 ],
					"destination" : [ "obj-23", 1 ],
					"hidden" : 0,
					"midpoints" : [  ]
				}

			}
, 			{
				"patchline" : 				{
					"source" : [ "obj-34", 0 ],
					"destination" : [ "obj-52", 0 ],
					"hidden" : 0,
					"midpoints" : [  ]
				}

			}
, 			{
				"patchline" : 				{
					"source" : [ "obj-37", 0 ],
					"destination" : [ "obj-54", 0 ],
					"hidden" : 0,
					"midpoints" : [  ]
				}

			}
, 			{
				"patchline" : 				{
					"source" : [ "obj-15", 0 ],
					"destination" : [ "obj-9", 0 ],
					"hidden" : 0,
					"midpoints" : [  ]
				}

			}
, 			{
				"patchline" : 				{
					"source" : [ "obj-40", 0 ],
					"destination" : [ "obj-55", 0 ],
					"hidden" : 0,
					"midpoints" : [  ]
				}

			}
 ]
	}

}
