{
	"patcher" : 	{
		"fileversion" : 1,
		"rect" : [ 488.0, 65.0, 746.0, 431.0 ],
		"bglocked" : 0,
		"defrect" : [ 488.0, 65.0, 746.0, 431.0 ],
		"openrect" : [ 0.0, 0.0, 0.0, 0.0 ],
		"openinpresentation" : 0,
		"default_fontsize" : 12.0,
		"default_fontface" : 0,
		"default_fontname" : "Arial",
		"gridonopen" : 0,
		"gridsize" : [ 15.0, 15.0 ],
		"gridsnaponopen" : 0,
		"toolbarvisible" : 1,
		"boxanimatetime" : 200,
		"imprint" : 0,
		"enablehscroll" : 1,
		"enablevscroll" : 1,
		"devicewidth" : 0.0,
		"boxes" : [ 			{
				"box" : 				{
					"maxclass" : "comment",
					"text" : "data",
					"fontsize" : 12.0,
					"numinlets" : 1,
					"patching_rect" : [ 571.0, 244.0, 42.0, 20.0 ],
					"numoutlets" : 0,
					"id" : "obj-16",
					"fontname" : "Arial"
				}

			}
, 			{
				"box" : 				{
					"maxclass" : "button",
					"outlettype" : [ "bang" ],
					"numinlets" : 1,
					"patching_rect" : [ 556.0, 244.0, 20.0, 20.0 ],
					"numoutlets" : 1,
					"id" : "obj-17"
				}

			}
, 			{
				"box" : 				{
					"maxclass" : "umenu",
					"outlettype" : [ "int", "", "" ],
					"fontsize" : 12.0,
					"items" : [ "/query/expected", ",", "/query/nodes", ",", "/query/slots" ],
					"numinlets" : 1,
					"types" : [  ],
					"patching_rect" : [ 391.0, 184.0, 108.0, 20.0 ],
					"numoutlets" : 3,
					"id" : "obj-25",
					"fontname" : "Arial"
				}

			}
, 			{
				"box" : 				{
					"maxclass" : "comment",
					"text" : "print",
					"fontsize" : 12.0,
					"numinlets" : 1,
					"patching_rect" : [ 526.0, 184.0, 32.0, 20.0 ],
					"numoutlets" : 0,
					"id" : "obj-19",
					"fontname" : "Arial"
				}

			}
, 			{
				"box" : 				{
					"maxclass" : "toggle",
					"outlettype" : [ "int" ],
					"numinlets" : 1,
					"patching_rect" : [ 556.0, 184.0, 20.0, 20.0 ],
					"numoutlets" : 1,
					"id" : "obj-20"
				}

			}
, 			{
				"box" : 				{
					"maxclass" : "comment",
					"text" : "pings",
					"fontsize" : 12.0,
					"numinlets" : 1,
					"patching_rect" : [ 451.0, 244.0, 42.0, 20.0 ],
					"numoutlets" : 0,
					"id" : "obj-21",
					"fontname" : "Arial"
				}

			}
, 			{
				"box" : 				{
					"maxclass" : "button",
					"outlettype" : [ "bang" ],
					"numinlets" : 1,
					"patching_rect" : [ 436.0, 244.0, 20.0, 20.0 ],
					"numoutlets" : 1,
					"id" : "obj-4"
				}

			}
, 			{
				"box" : 				{
					"maxclass" : "newobj",
					"text" : "p talk_to_datanetwork",
					"outlettype" : [ "", "" ],
					"fontsize" : 12.0,
					"numinlets" : 2,
					"patching_rect" : [ 436.0, 214.0, 139.0, 20.0 ],
					"numoutlets" : 2,
					"id" : "obj-6",
					"fontname" : "Arial",
					"patcher" : 					{
						"fileversion" : 1,
						"rect" : [ 723.0, 59.0, 640.0, 480.0 ],
						"bglocked" : 0,
						"defrect" : [ 723.0, 59.0, 640.0, 480.0 ],
						"openrect" : [ 0.0, 0.0, 0.0, 0.0 ],
						"openinpresentation" : 0,
						"default_fontsize" : 12.0,
						"default_fontface" : 0,
						"default_fontname" : "Arial",
						"gridonopen" : 0,
						"gridsize" : [ 15.0, 15.0 ],
						"gridsnaponopen" : 0,
						"toolbarvisible" : 1,
						"boxanimatetime" : 200,
						"imprint" : 0,
						"enablehscroll" : 1,
						"enablevscroll" : 1,
						"devicewidth" : 0.0,
						"boxes" : [ 							{
								"box" : 								{
									"maxclass" : "outlet",
									"numinlets" : 1,
									"patching_rect" : [ 330.0, 180.0, 25.0, 25.0 ],
									"numoutlets" : 0,
									"id" : "obj-18",
									"comment" : ""
								}

							}
, 							{
								"box" : 								{
									"maxclass" : "newobj",
									"text" : "append 6009 max_client",
									"outlettype" : [ "" ],
									"fontsize" : 12.0,
									"numinlets" : 1,
									"patching_rect" : [ 60.0, 180.0, 141.0, 20.0 ],
									"numoutlets" : 1,
									"id" : "obj-20",
									"fontname" : "Arial"
								}

							}
, 							{
								"box" : 								{
									"maxclass" : "button",
									"outlettype" : [ "bang" ],
									"numinlets" : 1,
									"patching_rect" : [ 120.0, 105.0, 20.0, 20.0 ],
									"numoutlets" : 1,
									"id" : "obj-19"
								}

							}
, 							{
								"box" : 								{
									"maxclass" : "newobj",
									"text" : "r dn.node",
									"outlettype" : [ "" ],
									"fontsize" : 12.0,
									"numinlets" : 0,
									"patching_rect" : [ 120.0, 75.0, 61.0, 20.0 ],
									"numoutlets" : 1,
									"id" : "obj-9",
									"fontname" : "Arial"
								}

							}
, 							{
								"box" : 								{
									"maxclass" : "newobj",
									"text" : "print",
									"fontsize" : 12.0,
									"numinlets" : 1,
									"patching_rect" : [ 555.0, 180.0, 34.0, 20.0 ],
									"numoutlets" : 0,
									"id" : "obj-17",
									"fontname" : "Arial"
								}

							}
, 							{
								"box" : 								{
									"maxclass" : "newobj",
									"text" : "unpack s i",
									"outlettype" : [ "", "int" ],
									"fontsize" : 12.0,
									"numinlets" : 1,
									"patching_rect" : [ 390.0, 180.0, 65.0, 20.0 ],
									"numoutlets" : 2,
									"id" : "obj-16",
									"fontname" : "Arial"
								}

							}
, 							{
								"box" : 								{
									"maxclass" : "outlet",
									"numinlets" : 1,
									"patching_rect" : [ 270.0, 180.0, 25.0, 25.0 ],
									"numoutlets" : 0,
									"id" : "obj-15",
									"comment" : ""
								}

							}
, 							{
								"box" : 								{
									"maxclass" : "newobj",
									"text" : "route /datanetwork/announce",
									"outlettype" : [ "", "" ],
									"fontsize" : 12.0,
									"numinlets" : 1,
									"patching_rect" : [ 390.0, 150.0, 166.0, 20.0 ],
									"numoutlets" : 2,
									"id" : "obj-14",
									"fontname" : "Arial"
								}

							}
, 							{
								"box" : 								{
									"maxclass" : "newobj",
									"text" : "dn.netport",
									"outlettype" : [ "" ],
									"fontsize" : 12.0,
									"numinlets" : 1,
									"patching_rect" : [ 195.0, 225.0, 65.0, 20.0 ],
									"numoutlets" : 1,
									"id" : "obj-13",
									"fontname" : "Arial"
								}

							}
, 							{
								"box" : 								{
									"maxclass" : "newobj",
									"text" : "pv dn-host",
									"outlettype" : [ "" ],
									"fontsize" : 12.0,
									"numinlets" : 1,
									"patching_rect" : [ 195.0, 150.0, 67.0, 20.0 ],
									"numoutlets" : 1,
									"id" : "obj-12",
									"fontname" : "Arial"
								}

							}
, 							{
								"box" : 								{
									"maxclass" : "newobj",
									"text" : "deferlow",
									"outlettype" : [ "" ],
									"fontsize" : 12.0,
									"numinlets" : 1,
									"patching_rect" : [ 195.0, 105.0, 56.0, 20.0 ],
									"numoutlets" : 1,
									"id" : "obj-11",
									"fontname" : "Arial"
								}

							}
, 							{
								"box" : 								{
									"maxclass" : "newobj",
									"text" : "loadbang",
									"outlettype" : [ "bang" ],
									"fontsize" : 12.0,
									"numinlets" : 1,
									"patching_rect" : [ 195.0, 75.0, 60.0, 20.0 ],
									"numoutlets" : 1,
									"id" : "obj-10",
									"fontname" : "Arial"
								}

							}
, 							{
								"box" : 								{
									"maxclass" : "newobj",
									"text" : "gate",
									"outlettype" : [ "" ],
									"fontsize" : 12.0,
									"numinlets" : 2,
									"patching_rect" : [ 555.0, 150.0, 34.0, 20.0 ],
									"numoutlets" : 1,
									"id" : "obj-8",
									"fontname" : "Arial"
								}

							}
, 							{
								"box" : 								{
									"maxclass" : "inlet",
									"outlettype" : [ "int" ],
									"numinlets" : 0,
									"patching_rect" : [ 555.0, 75.0, 25.0, 25.0 ],
									"numoutlets" : 1,
									"id" : "obj-7",
									"comment" : ""
								}

							}
, 							{
								"box" : 								{
									"maxclass" : "newobj",
									"text" : "route /ping /data/node",
									"outlettype" : [ "", "", "" ],
									"fontsize" : 12.0,
									"numinlets" : 1,
									"patching_rect" : [ 270.0, 105.0, 139.0, 20.0 ],
									"numoutlets" : 3,
									"id" : "obj-6",
									"fontname" : "Arial"
								}

							}
, 							{
								"box" : 								{
									"maxclass" : "newobj",
									"text" : "udpreceive 6009",
									"outlettype" : [ "" ],
									"fontsize" : 12.0,
									"numinlets" : 1,
									"patching_rect" : [ 270.0, 75.0, 99.0, 20.0 ],
									"numoutlets" : 1,
									"id" : "obj-5",
									"fontname" : "Arial"
								}

							}
, 							{
								"box" : 								{
									"maxclass" : "newobj",
									"text" : "prepend host",
									"outlettype" : [ "" ],
									"fontsize" : 12.0,
									"numinlets" : 1,
									"patching_rect" : [ 105.0, 225.0, 81.0, 20.0 ],
									"numoutlets" : 1,
									"id" : "obj-4",
									"fontname" : "Arial"
								}

							}
, 							{
								"box" : 								{
									"maxclass" : "newobj",
									"text" : "prepend port",
									"outlettype" : [ "" ],
									"fontsize" : 12.0,
									"numinlets" : 1,
									"patching_rect" : [ 195.0, 270.0, 79.0, 20.0 ],
									"numoutlets" : 1,
									"id" : "obj-3",
									"fontname" : "Arial"
								}

							}
, 							{
								"box" : 								{
									"maxclass" : "newobj",
									"text" : "udpsend localhost 7474",
									"fontsize" : 12.0,
									"numinlets" : 1,
									"patching_rect" : [ 60.0, 315.0, 137.0, 20.0 ],
									"numoutlets" : 0,
									"id" : "obj-2",
									"fontname" : "Arial"
								}

							}
, 							{
								"box" : 								{
									"maxclass" : "inlet",
									"outlettype" : [ "" ],
									"numinlets" : 0,
									"patching_rect" : [ 60.0, 75.0, 25.0, 25.0 ],
									"numoutlets" : 1,
									"id" : "obj-1",
									"comment" : ""
								}

							}
 ],
						"lines" : [ 							{
								"patchline" : 								{
									"source" : [ "obj-9", 0 ],
									"destination" : [ "obj-19", 0 ],
									"hidden" : 0,
									"midpoints" : [  ]
								}

							}
, 							{
								"patchline" : 								{
									"source" : [ "obj-8", 0 ],
									"destination" : [ "obj-17", 0 ],
									"hidden" : 0,
									"midpoints" : [  ]
								}

							}
, 							{
								"patchline" : 								{
									"source" : [ "obj-7", 0 ],
									"destination" : [ "obj-8", 0 ],
									"hidden" : 0,
									"midpoints" : [  ]
								}

							}
, 							{
								"patchline" : 								{
									"source" : [ "obj-6", 2 ],
									"destination" : [ "obj-8", 1 ],
									"hidden" : 0,
									"midpoints" : [ 399.5, 137.0, 579.5, 137.0 ]
								}

							}
, 							{
								"patchline" : 								{
									"source" : [ "obj-6", 1 ],
									"destination" : [ "obj-18", 0 ],
									"hidden" : 0,
									"midpoints" : [  ]
								}

							}
, 							{
								"patchline" : 								{
									"source" : [ "obj-6", 0 ],
									"destination" : [ "obj-15", 0 ],
									"hidden" : 0,
									"midpoints" : [  ]
								}

							}
, 							{
								"patchline" : 								{
									"source" : [ "obj-6", 2 ],
									"destination" : [ "obj-14", 0 ],
									"hidden" : 0,
									"midpoints" : [  ]
								}

							}
, 							{
								"patchline" : 								{
									"source" : [ "obj-5", 0 ],
									"destination" : [ "obj-6", 0 ],
									"hidden" : 0,
									"midpoints" : [  ]
								}

							}
, 							{
								"patchline" : 								{
									"source" : [ "obj-4", 0 ],
									"destination" : [ "obj-2", 0 ],
									"hidden" : 0,
									"midpoints" : [ 114.5, 287.0, 69.5, 287.0 ]
								}

							}
, 							{
								"patchline" : 								{
									"source" : [ "obj-3", 0 ],
									"destination" : [ "obj-2", 0 ],
									"hidden" : 0,
									"midpoints" : [ 204.5, 302.0, 69.5, 302.0 ]
								}

							}
, 							{
								"patchline" : 								{
									"source" : [ "obj-20", 0 ],
									"destination" : [ "obj-2", 0 ],
									"hidden" : 0,
									"midpoints" : [  ]
								}

							}
, 							{
								"patchline" : 								{
									"source" : [ "obj-19", 0 ],
									"destination" : [ "obj-12", 0 ],
									"hidden" : 0,
									"midpoints" : [ 129.5, 137.0, 204.5, 137.0 ]
								}

							}
, 							{
								"patchline" : 								{
									"source" : [ "obj-16", 0 ],
									"destination" : [ "obj-4", 0 ],
									"hidden" : 0,
									"midpoints" : [ 399.5, 212.0, 114.5, 212.0 ]
								}

							}
, 							{
								"patchline" : 								{
									"source" : [ "obj-16", 1 ],
									"destination" : [ "obj-3", 0 ],
									"hidden" : 0,
									"midpoints" : [ 445.5, 257.0, 204.5, 257.0 ]
								}

							}
, 							{
								"patchline" : 								{
									"source" : [ "obj-14", 0 ],
									"destination" : [ "obj-16", 0 ],
									"hidden" : 0,
									"midpoints" : [  ]
								}

							}
, 							{
								"patchline" : 								{
									"source" : [ "obj-13", 0 ],
									"destination" : [ "obj-3", 0 ],
									"hidden" : 0,
									"midpoints" : [  ]
								}

							}
, 							{
								"patchline" : 								{
									"source" : [ "obj-12", 0 ],
									"destination" : [ "obj-4", 0 ],
									"hidden" : 0,
									"midpoints" : [ 204.5, 212.0, 114.5, 212.0 ]
								}

							}
, 							{
								"patchline" : 								{
									"source" : [ "obj-12", 0 ],
									"destination" : [ "obj-13", 0 ],
									"hidden" : 0,
									"midpoints" : [  ]
								}

							}
, 							{
								"patchline" : 								{
									"source" : [ "obj-11", 0 ],
									"destination" : [ "obj-12", 0 ],
									"hidden" : 0,
									"midpoints" : [  ]
								}

							}
, 							{
								"patchline" : 								{
									"source" : [ "obj-10", 0 ],
									"destination" : [ "obj-11", 0 ],
									"hidden" : 0,
									"midpoints" : [  ]
								}

							}
, 							{
								"patchline" : 								{
									"source" : [ "obj-1", 0 ],
									"destination" : [ "obj-20", 0 ],
									"hidden" : 0,
									"midpoints" : [  ]
								}

							}
 ]
					}
,
					"saved_object_attributes" : 					{
						"globalpatchername" : "",
						"default_fontface" : 0,
						"fontface" : 0,
						"fontsize" : 12.0,
						"default_fontname" : "Arial",
						"default_fontsize" : 12.0,
						"fontname" : "Arial"
					}

				}

			}
, 			{
				"box" : 				{
					"maxclass" : "slider",
					"outlettype" : [ "" ],
					"numinlets" : 1,
					"size" : 256.0,
					"patching_rect" : [ 62.0, 251.0, 160.0, 22.0 ],
					"numoutlets" : 1,
					"id" : "obj-1"
				}

			}
, 			{
				"box" : 				{
					"maxclass" : "newobj",
					"text" : "pv dn-host 127.0.0.1",
					"outlettype" : [ "" ],
					"fontsize" : 12.0,
					"numinlets" : 1,
					"patching_rect" : [ 480.0, 26.0, 120.0, 20.0 ],
					"numoutlets" : 1,
					"id" : "obj-43",
					"fontname" : "Arial"
				}

			}
, 			{
				"box" : 				{
					"maxclass" : "comment",
					"text" : "Arguments: client name, node id, number of slots, minibee id, type",
					"fontsize" : 12.0,
					"numinlets" : 1,
					"patching_rect" : [ 80.0, 371.0, 378.0, 20.0 ],
					"numoutlets" : 0,
					"id" : "obj-30",
					"fontname" : "Arial"
				}

			}
, 			{
				"box" : 				{
					"maxclass" : "comment",
					"text" : "Bang in right inlet re-initializes, as does bang sent to \"dn.node\" (see above)",
					"linecount" : 2,
					"fontsize" : 12.0,
					"numinlets" : 1,
					"patching_rect" : [ 230.0, 291.0, 308.0, 34.0 ],
					"numoutlets" : 0,
					"id" : "obj-28",
					"fontname" : "Arial"
				}

			}
, 			{
				"box" : 				{
					"maxclass" : "button",
					"outlettype" : [ "bang" ],
					"numinlets" : 1,
					"patching_rect" : [ 166.0, 314.0, 20.0, 20.0 ],
					"numoutlets" : 1,
					"id" : "obj-26"
				}

			}
, 			{
				"box" : 				{
					"maxclass" : "newobj",
					"text" : "dn.minibee max_client 4001 1 2 output",
					"fontsize" : 12.0,
					"numinlets" : 2,
					"patching_rect" : [ 62.0, 346.0, 217.0, 20.0 ],
					"numoutlets" : 0,
					"id" : "obj-23",
					"fontname" : "Arial"
				}

			}
, 			{
				"box" : 				{
					"maxclass" : "newobj",
					"text" : "pack 0.",
					"outlettype" : [ "" ],
					"fontsize" : 12.0,
					"numinlets" : 1,
					"patching_rect" : [ 62.0, 313.0, 49.0, 20.0 ],
					"numoutlets" : 1,
					"id" : "obj-22",
					"fontname" : "Arial"
				}

			}
, 			{
				"box" : 				{
					"maxclass" : "comment",
					"text" : "Send data as a list of floats. Each element corresponds to a slot.",
					"linecount" : 2,
					"fontsize" : 12.0,
					"numinlets" : 1,
					"patching_rect" : [ 44.0, 176.0, 308.0, 34.0 ],
					"numoutlets" : 0,
					"id" : "obj-14",
					"fontname" : "Arial"
				}

			}
, 			{
				"box" : 				{
					"maxclass" : "comment",
					"text" : "Similarly, the client name of the patch is shared between all objects and must also be included.",
					"linecount" : 2,
					"fontsize" : 12.0,
					"numinlets" : 1,
					"patching_rect" : [ 137.0, 109.0, 326.0, 34.0 ],
					"numoutlets" : 0,
					"id" : "obj-12",
					"fontname" : "Arial"
				}

			}
, 			{
				"box" : 				{
					"maxclass" : "comment",
					"text" : "This abstraction learns the host IP address using the \"pv dn-host\" object - this MUST be included in the parent patcher.",
					"linecount" : 2,
					"fontsize" : 12.0,
					"numinlets" : 1,
					"patching_rect" : [ 137.0, 72.0, 339.0, 34.0 ],
					"numoutlets" : 0,
					"id" : "obj-10",
					"fontname" : "Arial"
				}

			}
, 			{
				"box" : 				{
					"maxclass" : "comment",
					"text" : "<---------------",
					"fontsize" : 12.0,
					"numinlets" : 1,
					"patching_rect" : [ 67.0, 33.0, 81.0, 20.0 ],
					"numoutlets" : 0,
					"id" : "obj-8",
					"fontname" : "Arial"
				}

			}
, 			{
				"box" : 				{
					"maxclass" : "comment",
					"text" : "IMPORTANT!\nRe-init after changing client name",
					"linecount" : 2,
					"fontsize" : 12.0,
					"bgcolor" : [ 0.960784, 0.439216, 0.478431, 1.0 ],
					"numinlets" : 1,
					"patching_rect" : [ 137.0, 34.0, 195.0, 34.0 ],
					"numoutlets" : 0,
					"id" : "obj-5",
					"fontname" : "Arial"
				}

			}
, 			{
				"box" : 				{
					"maxclass" : "newobj",
					"text" : "s dn.node",
					"fontsize" : 12.0,
					"numinlets" : 1,
					"patching_rect" : [ 43.0, 61.0, 63.0, 20.0 ],
					"numoutlets" : 0,
					"id" : "obj-3",
					"fontname" : "Arial"
				}

			}
, 			{
				"box" : 				{
					"maxclass" : "button",
					"outlettype" : [ "bang" ],
					"numinlets" : 1,
					"patching_rect" : [ 43.0, 33.0, 20.0, 20.0 ],
					"numoutlets" : 1,
					"id" : "obj-2"
				}

			}
, 			{
				"box" : 				{
					"maxclass" : "flonum",
					"outlettype" : [ "float", "bang" ],
					"fontsize" : 12.0,
					"numinlets" : 1,
					"patching_rect" : [ 62.0, 282.0, 50.0, 20.0 ],
					"numoutlets" : 2,
					"id" : "obj-15",
					"fontname" : "Arial"
				}

			}
 ],
		"lines" : [ 			{
				"patchline" : 				{
					"source" : [ "obj-26", 0 ],
					"destination" : [ "obj-23", 1 ],
					"hidden" : 0,
					"midpoints" : [  ]
				}

			}
, 			{
				"patchline" : 				{
					"source" : [ "obj-22", 0 ],
					"destination" : [ "obj-23", 0 ],
					"hidden" : 0,
					"midpoints" : [  ]
				}

			}
, 			{
				"patchline" : 				{
					"source" : [ "obj-6", 1 ],
					"destination" : [ "obj-17", 0 ],
					"hidden" : 0,
					"midpoints" : [  ]
				}

			}
, 			{
				"patchline" : 				{
					"source" : [ "obj-6", 0 ],
					"destination" : [ "obj-4", 0 ],
					"hidden" : 0,
					"midpoints" : [  ]
				}

			}
, 			{
				"patchline" : 				{
					"source" : [ "obj-25", 1 ],
					"destination" : [ "obj-6", 0 ],
					"hidden" : 0,
					"midpoints" : [  ]
				}

			}
, 			{
				"patchline" : 				{
					"source" : [ "obj-20", 0 ],
					"destination" : [ "obj-6", 1 ],
					"hidden" : 0,
					"midpoints" : [  ]
				}

			}
, 			{
				"patchline" : 				{
					"source" : [ "obj-2", 0 ],
					"destination" : [ "obj-3", 0 ],
					"hidden" : 0,
					"midpoints" : [  ]
				}

			}
, 			{
				"patchline" : 				{
					"source" : [ "obj-15", 0 ],
					"destination" : [ "obj-22", 0 ],
					"hidden" : 0,
					"midpoints" : [  ]
				}

			}
, 			{
				"patchline" : 				{
					"source" : [ "obj-1", 0 ],
					"destination" : [ "obj-15", 0 ],
					"hidden" : 0,
					"midpoints" : [  ]
				}

			}
 ]
	}

}
